<?xml version="1.0" encoding="UTF-8"?>
<!DOCTYPE svg PUBLIC "-//W3C//DTD SVG 1.1//EN" "http://www.w3.org/Graphics/SVG/1.1/DTD/svg11.dtd">
<!-- Creator: CorelDRAW X7 -->
<svg xmlns="http://www.w3.org/2000/svg" xml:space="preserve" width="500px" height="500px" version="1.1" shape-rendering="geometricPrecision" text-rendering="geometricPrecision" image-rendering="optimizeQuality" fill-rule="evenodd" clip-rule="evenodd"
viewBox="0 0 204 204"
 xmlns:xlink="http://www.w3.org/1999/xlink"
 enable-background="new 0 0 64 64">
 <g id="Layer_x0020_1">
  <metadata id="CorelCorpID_0Corel-Layer"/>
  <g id="communication_13522953.svg">
   <g>
    <g>
     <path fill="#D8292D" d="M91 56l0 -1c0,0 0,0 0,0 0,0 0,1 0,1 0,0 1,1 1,1 0,0 0,0 0,0 -1,-1 -1,-2 -1,-3 0,-1 0,-2 -1,-3 0,0 0,0 0,0 0,0 0,0 0,-1 0,0 0,0 0,0 0,-1 0,-1 -1,-2 0,0 -1,-1 -1,-1 0,0 0,-1 -1,-1 0,-1 -1,-2 -2,-2 0,-1 -1,-1 -2,-1 0,-1 -1,-1 -2,-1 0,0 0,-1 0,-1 2,1 4,1 6,2 0,0 1,0 1,1 0,-1 0,-1 0,-1 -1,0 -1,0 -2,0 -2,-2 -4,-2 -6,-2 -1,-1 -2,-1 -3,-1 -1,0 -1,0 -1,0 0,0 -1,0 -1,0 0,0 0,-1 -1,-1l0 0 5 0c0,0 0,0 0,0 -2,0 -4,0 -6,0l-1 0c0,0 -1,0 -2,0 0,0 0,0 -1,0 0,0 0,0 0,0l0 0c2,-1 3,-1 5,-1 -2,0 -3,0 -5,0 -1,0 -1,1 -2,1 -1,0 -3,0 -4,0 2,-1 5,-2 8,-2 -1,0 -1,0 -2,0 -2,0 -3,0 -5,1 -2,0 -3,1 -4,2 -1,0 -1,0 -1,0 0,0 0,0 0,0 0,0 1,-1 1,-1 1,0 2,-1 2,-1 1,0 2,-1 2,-1 -1,1 -2,1 -3,2 -2,0 -4,2 -6,3 0,1 0,1 -1,1l0 0c0,0 0,1 0,1 0,0 0,0 0,1 -1,0 -1,0 -1,0 0,0 -1,0 -1,0 0,1 0,1 0,1 -1,0 -1,0 -1,0 -1,1 -2,2 -2,3 0,0 1,-1 2,-2 -1,1 -1,2 -1,2 0,0 0,1 0,1 -1,1 -1,1 -1,2 0,-1 0,-1 1,-2 0,0 0,0 0,0 0,1 0,1 0,1 -1,3 -1,6 -1,9 0,2 0,3 0,5l0 9c0,4 2,7 4,10 1,1 1,1 1,2l2 4c3,5 8,8 14,8 6,0 11,-3 14,-8l2 -4c0,-1 1,-1 1,-2 3,-3 4,-6 4,-10l0 -8c0,-1 0,-1 0,-1 1,-2 0,-4 0,-7 0,0 0,-1 0,-2l0 0zm-10 1c2,0 6,1 6,6l0 11c0,3 -1,5 -3,7 -1,1 -1,2 -2,3l-1 4c-2,4 -6,6 -11,6 -4,0 -8,-2 -10,-6l-2 -4c0,-1 -1,-2 -2,-3 -2,-2 -3,-4 -3,-7l0 -6c0,0 0,0 0,-1 1,0 0,0 1,0l0 -5c0,0 0,-5 5,-5 0,0 7,3 12,3 3,0 7,-1 10,-3l0 0zm0 0l0 0 0 0z"/>
    </g>
    <path fill="#D8292D" d="M86 102c8,3 16,4 23,8 4,3 5,8 6,13 0,2 2,36 2,38 0,3 -2,5 -6,5 -1,0 -2,0 -2,0 -25,0 -54,0 -78,0 -6,0 -8,-2 -8,-8 0,-2 2,-36 3,-39 1,-5 4,-9 8,-10 7,-3 14,-5 21,-7l11 29 2 -20 -3 -3c0,0 0,0 0,0 -1,-2 1,-4 3,-4l4 0c2,0 4,2 4,4 0,0 0,0 0,0 0,0 -1,0 -1,0l-2 3 0 1 2 19 11 -29z"/>
    <path fill="#D8292D" d="M134 70l0 0 0 0c-1,0 -2,0 -2,0 -1,0 -2,0 -2,0l0 0 0 0c-18,0 -33,11 -41,25 2,1 3,1 5,2 2,-4 5,-7 8,-10 1,1 3,3 5,4 -1,3 -3,6 -4,9 1,0 3,1 4,1 1,-2 2,-5 4,-7 4,3 11,6 18,6 0,0 0,0 1,0l0 16 -9 0c0,2 1,3 1,4l8 0 0 15c-1,0 -1,0 -1,0 -2,0 -4,1 -6,1 0,2 0,3 0,4 2,0 4,0 6,-1 0,0 0,0 1,0l0 21c-2,-1 -4,-3 -6,-4 0,2 0,4 0,5 0,2 -1,3 -1,5 3,0 6,1 9,1 27,0 48,-22 48,-49 0,-26 -20,-47 -46,-48l0 0zm-25 18c-1,-1 -3,-3 -4,-4 5,-3 10,-6 16,-8 -4,4 -8,7 -12,12l0 0zm21 8c0,0 -1,0 -1,0 -6,0 -12,-3 -16,-6 4,-6 10,-11 17,-14l0 20zm45 20l-11 0c0,-9 -3,-17 -8,-25 0,0 0,0 0,0 2,-1 4,-3 5,-4 8,7 13,18 14,29zm-17 -32c-1,1 -3,3 -4,4 -3,-5 -7,-9 -12,-12 6,2 12,4 16,8zm-24 -8c7,3 12,8 16,14 -5,3 -11,5 -16,6l0 -20zm0 24c6,0 13,-3 19,-7 4,7 7,15 7,23l-26 0 0 -16zm0 20l26 0c0,0 0,0 0,1 -1,7 -3,15 -7,21 -6,-4 -13,-6 -19,-7l0 -15zm0 19c5,1 11,3 17,7 -5,5 -10,10 -17,14l0 -21zm6 21c6,-3 10,-7 14,-12 1,1 3,2 5,4 -6,4 -12,7 -19,8zm22 -11c-2,-1 -4,-3 -6,-4 5,-8 7,-16 8,-24 0,0 0,-1 0,-1l11 0c-1,12 -6,22 -13,29z"/>
   </g>
  </g>
  <rect fill="none" width="204" height="204"/>
 </g>
</svg>
