<?xml version="1.0" encoding="UTF-8"?>
<!DOCTYPE svg PUBLIC "-//W3C//DTD SVG 1.1//EN" "http://www.w3.org/Graphics/SVG/1.1/DTD/svg11.dtd">
<!-- Creator: CorelDRAW X7 -->
<svg xmlns="http://www.w3.org/2000/svg" xml:space="preserve" width="500px" height="500px" version="1.1" shape-rendering="geometricPrecision" text-rendering="geometricPrecision" image-rendering="optimizeQuality" fill-rule="evenodd" clip-rule="evenodd"
viewBox="0 0 6783 6783"
 xmlns:xlink="http://www.w3.org/1999/xlink"
 enable-background="new 0 0 512 512">
 <g id="Layer_x0020_1">
  <metadata id="CorelCorpID_0Corel-Layer"/>
  <g id="repair_8718296.svg">
   <g>
    <path fill="white" d="M6011 1994l-614 613c96,243 148,508 148,784 0,1188 -966,2154 -2154,2154 -1187,0 -2154,-966 -2154,-2154 0,-1187 967,-2154 2154,-2154 284,0 555,56 803,156l612 -612c-241,-131 -502,-230 -778,-290l-102 -491 -1070 0 -101 490c-348,77 -673,214 -963,400l-420 -275 -757 757 275 419c-186,291 -323,615 -399,963l-491 102 0 1070 491 102c76,347 213,672 399,963l-275 420 757 757 419 -276c291,187 615,324 963,400l102 491 1070 0 102 -491c348,-76 673,-213 963,-400l420 276 757 -757 -276 -419c186,-291 324,-616 400,-964l491 -102 0 -1070 -491 -101c-59,-269 -155,-525 -281,-761l0 0z"/>
    <path fill="white" d="M3391 4715c-731,0 -1324,-592 -1324,-1324 0,-731 593,-1324 1324,-1324 42,0 83,2 123,6l368 -368c-156,-46 -320,-70 -491,-70 -968,0 -1756,788 -1756,1756 0,969 788,1757 1756,1757 969,0 1757,-788 1757,-1757 0,-163 -23,-320 -64,-470l-372 372c2,32 3,65 3,98 0,732 -592,1324 -1324,1324z"/>
    <path fill="white" d="M3388 2435c-530,0 -960,430 -960,961 0,141 31,276 86,397l482 -483 489 0 0 489 -477 478c116,51 245,79 380,79 530,0 960,-430 960,-960 0,-87 -12,-170 -33,-250l2468 -2479 -654 -667 -2472 2474c-86,-25 -176,-39 -269,-39z"/>
   </g>
  </g>
 </g>
</svg>
