<?xml version="1.0" encoding="UTF-8"?>
<!DOCTYPE svg PUBLIC "-//W3C//DTD SVG 1.1//EN" "http://www.w3.org/Graphics/SVG/1.1/DTD/svg11.dtd">
<!-- Creator: CorelDRAW X7 -->
<svg xmlns="http://www.w3.org/2000/svg" xml:space="preserve" width="342px" height="342px" version="1.1" shape-rendering="geometricPrecision" text-rendering="geometricPrecision" image-rendering="optimizeQuality" fill-rule="evenodd" clip-rule="evenodd"
viewBox="0 0 1083 1083"
 xmlns:xlink="http://www.w3.org/1999/xlink">
 <g id="Layer_x0020_1">
  <metadata id="CorelCorpID_0Corel-Layer"/>
  <path fill="white" d="M0 58l0 821c5,9 8,27 22,40 10,8 24,17 42,19 34,4 86,1 122,1 82,0 164,0 246,0 4,1 19,21 23,26 17,21 61,54 84,68 35,20 67,33 108,42 13,3 33,3 43,8l59 0c21,-8 60,-2 131,-36 41,-20 88,-55 117,-91 21,-26 34,-43 50,-76 35,-74 30,-116 36,-131l0 -55c-7,-17 -2,-91 -69,-183 -7,-10 -15,-19 -22,-28l-39 -38c-5,-5 -8,-5 -14,-11 -4,-10 3,-323 -1,-368 -2,-26 -16,-45 -36,-56 -8,-5 -16,-6 -23,-10l-819 0c-22,12 -41,9 -56,49l-4 9z"/>
  <path fill="#F6F6F6" d="M688 399c-100,12 -168,60 -213,112 -48,54 -87,146 -76,247 19,167 168,307 358,287 166,-18 308,-168 288,-358 -8,-79 -52,-164 -112,-212 -69,-55 -149,-87 -245,-76z"/>
  <path fill="#F6F6F6" d="M901 408l0 -226 -865 1c1,182 0,364 0,547 0,185 -18,173 99,173 43,0 251,2 274,-1 -42,-70 -61,-176 -37,-269 24,-94 77,-157 133,-199 0,-35 -5,-148 7,-171 14,-26 38,-28 61,-28 50,0 244,-6 265,6 20,11 28,28 28,59 0,31 0,62 0,92l35 16z"/>
  <path fill="white" d="M663 721l-22 23c-9,-7 -17,-17 -34,-21 -35,-8 -90,25 -52,89 -9,17 -37,32 -46,50 -16,29 16,52 27,63 12,12 33,42 63,29 14,-7 37,-36 50,-47 24,11 49,27 79,-7 25,-29 7,-62 -10,-79 5,-7 14,-17 22,-22l36 34c1,44 10,82 59,100 49,18 93,-10 109,-39 32,-57 -2,-136 -83,-135 -17,0 -23,-18 -44,-35 4,-10 34,-36 43,-46 13,-13 13,-6 30,-15 12,-7 63,-58 65,-67 5,-17 -4,-25 -11,-32 -21,-21 -54,-62 -76,-58 -12,2 -38,33 -47,42 -44,44 -15,32 -37,52 -9,10 -37,40 -46,45 -6,-8 -13,-14 -21,-21 -13,-14 -13,-7 -13,-32 -2,-79 -100,-113 -154,-61 -55,56 -18,152 59,155 26,0 17,-3 32,12 8,8 16,14 22,23z"/>
  <path fill="#F6F6F6" d="M36 144l866 0c1,-39 11,-99 -27,-107 -18,-4 -370,-1 -405,-1 -35,0 -389,-3 -406,1 -38,8 -28,59 -28,107z"/>
  <path fill="#F6F6F6" d="M1083 694l0 -694 -204 0c7,4 15,5 23,10 20,11 34,30 36,56 4,45 -3,358 1,368 6,6 9,6 14,11l39 38c7,9 15,18 22,28 67,92 62,166 69,183z"/>
  <path fill="#F6F6F6" d="M0 1083l690 0c-10,-5 -30,-5 -43,-8 -41,-9 -73,-22 -108,-42 -23,-14 -67,-47 -84,-68 -4,-5 -19,-25 -23,-26 -82,0 -164,0 -246,0 -36,0 -88,3 -122,-1 -18,-2 -32,-11 -42,-19 -14,-13 -17,-31 -22,-40l0 204z"/>
  <path fill="#F6F6F6" d="M542 409c11,-4 31,-17 60,-27 124,-44 206,-5 228,-6 0,-22 0,-43 0,-65 0,-26 4,-40 -26,-40l-199 0c-79,0 -64,-16 -63,138z"/>
  <path fill="#F6F6F6" d="M749 1083l334 0 0 -334c-6,15 -1,57 -36,131 -16,33 -29,50 -50,76 -29,36 -76,71 -117,91 -71,34 -110,28 -131,36z"/>
  <path fill="#F6F6F6" d="M592 546c7,14 55,43 34,63 -20,18 -49,-28 -61,-36 -10,25 -3,48 12,62 28,26 49,6 66,15l168 168c10,16 -9,39 15,66 10,12 40,28 62,13 -7,-13 -53,-41 -35,-60 20,-21 39,15 62,34 9,-24 3,-48 -11,-62 -27,-26 -48,-6 -66,-14 -7,-4 -107,-106 -127,-126 -9,-9 -38,-36 -42,-43 -10,-16 9,-38 -15,-66 -15,-18 -34,-21 -62,-14z"/>
  <path fill="white" d="M102 273c-12,6 -17,20 -5,30 9,7 30,4 43,4 42,0 275,2 283,-2 11,-5 14,-21 4,-30 -8,-7 -30,-4 -42,-4 -42,0 -274,-2 -283,2z"/>
  <path fill="white" d="M102 543c-21,10 -16,35 16,35 34,0 206,1 215,-2 10,-4 23,-35 -18,-35 -33,0 -204,-2 -213,2z"/>
  <path fill="white" d="M104 687c-18,5 -17,26 -5,33 11,5 156,2 160,0 14,-5 14,-26 2,-32 -9,-5 -152,-2 -157,-1z"/>
  <path fill="white" d="M104 416c-18,5 -17,26 -5,33 11,5 156,2 160,1 14,-6 14,-26 2,-32 -9,-6 -152,-3 -157,-2z"/>
  <path fill="white" d="M105 759c-23,7 -14,28 -6,33 9,4 41,2 53,2 16,0 99,2 108,-1 14,-6 14,-26 1,-32 -10,-6 -152,-3 -156,-2z"/>
  <path fill="white" d="M103 616c-3,1 -12,2 -12,14 -1,9 4,15 10,18 9,4 153,3 160,0 14,-7 11,-28 -1,-33 -8,-3 -149,-3 -157,1z"/>
  <path fill="white" d="M103 345c-20,8 -12,28 -2,32 9,4 153,3 160,0 14,-7 11,-28 -1,-32 -8,-4 -149,-4 -157,0z"/>
  <path fill="#F6F6F6" d="M588 761c-22,12 -4,29 4,37l63 63c8,8 22,29 39,22 6,-3 11,-10 10,-19 -2,-11 -35,-41 -45,-51 -11,-11 -21,-20 -32,-31 -7,-7 -23,-30 -39,-21z"/>
  <path fill="#F6F6F6" d="M916 588l-42 -42c-19,20 -47,41 -46,54 1,9 9,15 14,20 16,16 22,21 41,2 9,-9 26,-25 33,-34z"/>
  <path fill="#F6F6F6" d="M542 880l41 41 40 -39c-2,-5 -35,-40 -44,-43 -9,12 -33,33 -37,41z"/>
  <path fill="#A4A4A4" d="M901 408l2 -228c-28,-3 -727,0 -842,0l-19 0c-9,1 -3,-1 -6,3l865 -1 0 226z"/>
  <path fill="#F6F6F6" d="M766 670c5,11 16,16 23,26 7,-3 35,-32 39,-38l-24 -24c-13,7 -26,26 -38,36z"/>
  <path fill="#F6F6F6" d="M667 770l25 25 22 -23c-5,-7 -17,-19 -24,-24 -9,5 -18,14 -23,22z"/>
  <path fill="#F6F6F6" d="M0 58l4 -9c15,-40 34,-37 56,-49l-60 0 0 58z"/>
  <path fill="white" d="M85 74c-24,8 -11,40 11,33 21,-7 12,-42 -11,-33z"/>
  <path fill="white" d="M230 73c-23,7 -14,41 10,34 20,-5 13,-41 -10,-34z"/>
  <path fill="white" d="M157 74c-23,9 -12,40 11,33 21,-6 11,-42 -11,-33z"/>
 </g>
</svg>
