<?xml version="1.0" encoding="UTF-8"?>
<!DOCTYPE svg PUBLIC "-//W3C//DTD SVG 1.1//EN" "http://www.w3.org/Graphics/SVG/1.1/DTD/svg11.dtd">
<!-- Creator: CorelDRAW X7 -->
<svg xmlns="http://www.w3.org/2000/svg" xml:space="preserve" width="314px" height="263px" version="1.1" shape-rendering="geometricPrecision" text-rendering="geometricPrecision" image-rendering="optimizeQuality" fill-rule="evenodd" clip-rule="evenodd"
viewBox="0 0 120 101"
 xmlns:xlink="http://www.w3.org/1999/xlink"
 enable-background="new 0 0 512 512">
 <g id="Layer_x0020_1">
  <metadata id="CorelCorpID_0Corel-Layer"/>
  <g id="cash-on-delivery_15166224.svg">
   <path fill="white" d="M120 80l-3 -5c-1,-1 -3,-2 -5,-1 -1,-4 -1,-8 -1,-11 0,-2 0,-5 0,-8 -1,-3 -3,-6 -5,-8 -2,-1 -3,-2 -5,-2l0 -39c0,-3 -3,-6 -6,-6l-70 0c-3,0 -6,3 -6,6l0 39c-2,0 -3,1 -5,2 -2,2 -4,5 -5,8 0,3 0,6 0,8 0,3 0,7 -1,11 -1,-1 -2,-1 -3,0 0,0 -1,0 -2,1l-3 5c0,1 0,2 0,3 0,1 1,1 2,2l27 15c0,1 1,1 1,1 1,0 1,0 1,0 1,-1 2,-1 2,-2l3 -5c1,-1 1,-2 0,-3 0,0 0,-1 -1,-1 2,-3 4,-4 6,-6 4,-3 8,-6 10,-12l18 0c2,6 6,9 10,12 2,2 4,3 6,6 -1,0 -1,1 -1,1 -1,1 0,2 0,3l3 5c0,1 1,1 2,2 0,0 1,0 1,0 0,0 1,0 2,-1l27 -15c0,-1 1,-1 1,-2 0,-1 0,-2 0,-3l0 0zm-97 -74c0,-1 1,-2 2,-2l21 0 0 15c0,1 0,2 2,3 0,0 1,0 1,0 1,0 2,0 3,0l8 -7 8 7c2,1 3,1 5,0 1,-1 2,-2 2,-3l0 -15 20 0c1,0 2,1 2,2l0 36c-1,-1 -3,-2 -5,-3 -1,0 -3,-1 -4,-2 -3,-2 -6,-2 -8,0 -3,-8 -11,-13 -20,-13 -9,0 -16,5 -20,13 -2,-2 -5,-2 -7,0 -2,1 -4,2 -5,2 -2,1 -4,2 -5,3l0 -36 0 0zm33 45c-1,-1 -1,-2 0,-3 1,-1 2,0 3,0 0,1 0,1 1,1l0 0c1,0 1,-1 1,-1 0,-1 0,-1 -1,-1l0 0c-3,0 -5,-2 -5,-5 0,-2 1,-4 3,-4l0 -1c0,-1 1,-2 2,-2 1,0 2,1 2,2l0 1c1,0 2,1 2,1 1,1 1,2 0,3 -1,1 -2,0 -3,0 0,-1 0,-1 0,-1l-1 0c-1,0 -1,1 -1,1 0,1 0,1 1,1l0 0c3,0 5,2 5,5 0,2 -1,4 -3,4l0 1c0,1 -1,2 -2,2 -1,0 -2,-1 -2,-2l0 -1c-1,0 -2,-1 -2,-1l0 0zm4 -22c-8,0 -14,6 -15,14 0,-1 -1,-2 -1,-3 0,0 -1,-1 -1,-1 3,-7 10,-12 17,-12 8,0 14,5 17,12 0,0 0,1 0,1 -1,1 -1,2 -1,3 -1,-8 -8,-14 -16,-14l0 0zm-15 16c0,9 7,16 15,16 9,0 16,-7 16,-16 0,2 0,3 1,4 -1,8 -9,14 -17,14 -8,0 -15,-6 -17,-14 1,-1 1,-2 2,-4l0 0zm-6 36c-2,2 -5,4 -7,7l-21 -12c2,-5 2,-9 2,-13 0,-2 0,-4 0,-7 1,-3 2,-4 3,-5 5,-3 9,-6 14,-8 1,-1 3,-2 4,-3 3,-1 5,0 6,2 2,2 1,4 -1,6 -2,1 -4,2 -7,3 -2,1 -4,3 -5,4 -1,0 -1,1 -1,2 3,8 1,11 -3,16 0,1 0,2 1,3 0,0 2,0 2,-1 1,-1 2,-2 3,-3l18 0c-1,4 -4,6 -8,9zm-9 -13c1,-3 1,-6 0,-11 1,-1 3,-2 4,-2 2,-2 4,-3 6,-4 2,9 11,15 20,15 10,0 18,-6 21,-15 1,1 3,2 5,4 1,0 3,1 4,2 -1,5 -1,8 0,11l-60 0zm51 13c-3,-3 -7,-5 -8,-9l18 0c1,1 2,2 3,3 1,1 2,1 3,1 0,-1 1,-2 0,-3 -4,-5 -6,-8 -3,-16 1,-1 0,-2 -1,-2 -1,-1 -3,-3 -5,-4 -2,-1 -5,-2 -7,-3 -2,-2 -2,-4 -1,-6 1,-2 4,-3 6,-2 1,1 3,2 4,3 5,2 9,5 14,8 2,1 3,2 3,5 0,3 0,5 0,7 0,4 0,8 2,13l-21 12c-2,-3 -4,-5 -7,-7z"/>
  </g>
 </g>
</svg>
