<?xml version="1.0" encoding="UTF-8"?>
<!DOCTYPE svg PUBLIC "-//W3C//DTD SVG 1.1//EN" "http://www.w3.org/Graphics/SVG/1.1/DTD/svg11.dtd">
<!-- Creator: CorelDRAW X7 -->
<svg xmlns="http://www.w3.org/2000/svg" xml:space="preserve" width="500px" height="500px" version="1.1" shape-rendering="geometricPrecision" text-rendering="geometricPrecision" image-rendering="optimizeQuality" fill-rule="evenodd" clip-rule="evenodd"
viewBox="0 0 48 48"
 xmlns:xlink="http://www.w3.org/1999/xlink">
 <g id="Layer_x0020_1">
  <metadata id="CorelCorpID_0Corel-Layer"/>
  <path fill="#333333" d="M48 38l-7 -22c0,0 -1,-1 -2,-1l-7 0c-1,0 -2,1 -2,2l0 9 -11 0 0 -9c0,-1 -1,-2 -2,-2l-8 0c0,0 -1,1 -1,1l-8 22c0,1 0,1 0,1 0,0 0,1 0,1 1,1 1,1 2,1l20 0 0 4 -5 0c-1,0 -2,1 -2,2 0,1 1,1 2,1l15 0c1,0 2,0 2,-1 0,-1 -1,-2 -2,-2l-6 0 0 -4 21 0c0,0 1,0 1,-1 0,0 1,-1 0,-2zm-14 -19l4 0 2 7 -6 0 0 -7zm-4 11l0 7 -11 0 0 -7 11 0zm-19 -11l4 0 0 7 -7 0 3 -7zm-4 11l8 0 0 7 -10 0 2 -7zm27 7l0 -7 7 0 3 7 -10 0z"/>
  <path fill="#D8292D" d="M20 11l5 0 -2 5c-1,1 -1,2 0,3 1,0 2,0 3,-1l4 -8c0,0 0,-1 0,-2 -1,0 -1,0 -2,0l-4 0 2 -5c0,-1 0,-2 -1,-3 -1,0 -2,0 -2,1l-4 8c-1,0 -1,1 0,1 0,1 1,1 1,1z"/>
 </g>
</svg>
