<?xml version="1.0" encoding="UTF-8"?>
<!DOCTYPE svg PUBLIC "-//W3C//DTD SVG 1.1//EN" "http://www.w3.org/Graphics/SVG/1.1/DTD/svg11.dtd">
<!-- Creator: CorelDRAW X7 -->
<svg xmlns="http://www.w3.org/2000/svg" xml:space="preserve" width="75px" height="96px" version="1.1" shape-rendering="geometricPrecision" text-rendering="geometricPrecision" image-rendering="optimizeQuality" fill-rule="evenodd" clip-rule="evenodd"
viewBox="0 0 10 12"
 xmlns:xlink="http://www.w3.org/1999/xlink">
 <g id="Layer_x0020_1">
  <metadata id="CorelCorpID_0Corel-Layer"/>
  <path id="_202405160656icon-30c_x0020__x0028_1_x0029_.svg" fill="#D8292D" d="M8 1c-1,-1 -2,-1 -3,-1 -1,0 -3,0 -4,1 0,1 -1,2 -1,3 0,2 1,3 1,4 1,0 1,1 1,2l0 1c0,1 1,1 2,1l2 0c1,0 1,0 1,-1l0 -1c0,-1 1,-2 1,-2 1,-1 2,-2 2,-4 0,-1 -1,-2 -2,-3zm-2 10c0,0 0,0 0,0l-2 0c0,0 -1,0 -1,0l0 0 2 0 0 0c0,0 0,0 0,0l1 0 0 0zm-1 -6c0,0 -1,0 -1,0l0 2c0,-1 -1,-1 -1,-1 0,-1 1,-1 1,-2 0,0 1,0 1,-1 0,1 0,1 0,1 1,1 1,1 1,2 0,0 0,0 -1,1l0 -2c0,0 0,0 0,0zm3 2c-1,1 -2,2 -2,3l-1 0 0 -2c1,0 1,-1 2,-1 0,0 0,-1 0,-1 0,-1 0,-2 -1,-3 0,0 0,0 -1,-1 0,0 0,0 0,0 0,0 0,0 -1,0 0,1 0,1 -1,1 0,1 -1,2 -1,3 0,0 1,1 1,1 0,0 1,1 1,1l0 2 -1 0c0,-1 0,-2 -1,-3 0,-1 -1,-2 -1,-3 0,-2 2,-3 4,-3 2,0 4,1 4,3 0,1 -1,2 -1,3z"/>
 </g>
</svg>
