<?xml version="1.0" encoding="UTF-8"?>
<!DOCTYPE svg PUBLIC "-//W3C//DTD SVG 1.1//EN" "http://www.w3.org/Graphics/SVG/1.1/DTD/svg11.dtd">
<!-- Creator: CorelDRAW X7 -->
<svg xmlns="http://www.w3.org/2000/svg" xml:space="preserve" width="500px" height="500px" version="1.1" shape-rendering="geometricPrecision" text-rendering="geometricPrecision" image-rendering="optimizeQuality" fill-rule="evenodd" clip-rule="evenodd"
viewBox="0 0 40 40"
 xmlns:xlink="http://www.w3.org/1999/xlink">
 <g id="Layer_x0020_1">
  <metadata id="CorelCorpID_0Corel-Layer"/>
  <path id="Brand-1715842564.svg" fill="#333333" d="M39 25c-2,0 -3,1 -4,1 -1,0 -1,1 -2,1 0,-2 1,-3 1,-4 1,0 1,0 2,0 0,0 0,0 0,0 1,0 3,0 4,-2 1,0 1,-1 0,-2 -1,0 -1,0 -2,0 -1,1 -1,1 -2,1 0,0 0,0 0,0 -1,0 -1,0 -2,0 0,-3 -1,-6 -2,-8 0,0 1,0 1,-1 1,-1 2,-2 2,-4 0,-1 -1,-1 -1,-1 -1,0 -2,0 -2,1 0,2 -1,3 -2,3 -2,-2 -4,-3 -7,-4 0,0 0,-1 0,-1 0,-2 0,-3 -2,-5 0,0 -1,0 -2,0 0,1 0,2 0,2 2,2 2,3 1,4 -3,0 -6,1 -8,3 0,-1 0,-1 -1,-2 -1,-1 -2,-1 -4,-1 -1,0 -2,0 -2,1 0,1 1,1 2,1 2,0 3,1 3,3 -2,2 -3,4 -4,7 0,0 -1,-1 -1,-1 -2,0 -3,1 -5,2 0,1 0,2 0,2 1,1 2,1 2,0 1,0 2,-1 3,-1 0,0 0,0 1,1 0,2 1,4 1,6 -1,0 -1,-1 -2,-1 0,0 -1,-1 -3,-1 -1,0 -2,1 -2,2l0 12c0,1 1,1 2,1l37 0c1,0 1,0 1,-1l0 -12c0,-1 0,-2 -1,-2zm-19 -16c6,0 11,5 11,11 0,2 0,4 -1,6 -1,-1 -2,-1 -3,-1 -2,0 -4,1 -4,1 -1,0 -1,0 -1,0l3 -5c0,0 0,-1 0,-1 -1,-1 -1,-1 -2,-1l-3 0 2 -4c0,-1 0,-2 -1,-2 -1,-1 -2,0 -2,0l-3 7c-1,0 -1,1 0,1 0,1 0,1 1,1l4 0 -2 4c-1,0 -1,0 -1,0 -1,0 -2,-1 -4,-1 -2,0 -3,0 -3,1 -1,-2 -2,-4 -2,-6 0,-6 5,-11 11,-11zm17 28l-34 0 0 -8c0,0 1,0 1,0 1,0 2,1 4,1 2,0 3,-1 3,-1 1,0 2,-1 3,-1 1,0 2,1 2,1 1,0 2,1 4,1 2,0 3,-1 4,-1 1,0 1,-1 3,-1 1,0 1,1 2,1 1,0 2,1 4,1 2,0 3,-1 4,-1 0,0 0,0 0,0l0 8z"/>
 </g>
</svg>
