<?xml version="1.0" encoding="UTF-8"?>
<!DOCTYPE svg PUBLIC "-//W3C//DTD SVG 1.1//EN" "http://www.w3.org/Graphics/SVG/1.1/DTD/svg11.dtd">
<!-- Creator: CorelDRAW X7 -->
<svg xmlns="http://www.w3.org/2000/svg" xml:space="preserve" width="106px" height="106px" version="1.1" shape-rendering="geometricPrecision" text-rendering="geometricPrecision" image-rendering="optimizeQuality" fill-rule="evenodd" clip-rule="evenodd"
viewBox="0 0 10 10"
 xmlns:xlink="http://www.w3.org/1999/xlink">
 <g id="Layer_x0020_1">
  <metadata id="CorelCorpID_0Corel-Layer"/>
  <path fill="#D8292D" d="M10 8l-1 -5c0,0 -1,0 -1,0l-1 0c0,0 -1,0 -1,1l0 2 -2 0 0 -2c0,-1 0,-1 0,-1l-2 0c0,0 0,0 0,0l-2 5c0,0 0,0 0,0 0,0 0,0 0,1 0,0 0,0 0,0l5 0 0 0 -1 0c-1,0 -1,1 -1,1 0,0 0,0 1,0l3 0c0,0 0,0 0,0 0,0 0,-1 0,-1l-1 0 0 0 4 0c0,0 0,0 0,0 0,-1 0,-1 0,-1zm-3 -4l1 0 1 2 -2 0 0 -2zm-1 2l0 2 -2 0 0 -2 2 0zm-4 -2l1 0 0 2 -1 0 0 -2zm-1 2l2 0 0 2 -2 0 0 -2zm6 2l0 -2 2 0 0 2 -2 0z"/>
  <path fill="#333333" d="M4 2l1 0 0 1c0,1 0,1 0,1 0,0 0,0 0,0l1 -2c0,0 0,0 0,0 0,0 0,0 0,0l-1 0 0 -1c1,-1 1,-1 0,-1 0,0 0,0 0,0l-1 2c0,0 0,0 0,0 0,0 0,0 0,0z"/>
 </g>
</svg>
