<?xml version="1.0" encoding="UTF-8"?>
<!DOCTYPE svg PUBLIC "-//W3C//DTD SVG 1.1//EN" "http://www.w3.org/Graphics/SVG/1.1/DTD/svg11.dtd">
<!-- Creator: CorelDRAW X7 -->
<svg xmlns="http://www.w3.org/2000/svg" xml:space="preserve" width="99px" height="128px" version="1.1" shape-rendering="geometricPrecision" text-rendering="geometricPrecision" image-rendering="optimizeQuality" fill-rule="evenodd" clip-rule="evenodd"
viewBox="0 0 23 30"
 xmlns:xlink="http://www.w3.org/1999/xlink">
 <g id="Layer_x0020_1">
  <metadata id="CorelCorpID_0Corel-Layer"/>
  <path fill="#333333" d="M17 7c1,1 2,3 3,5 0,0 1,1 1,0 1,0 1,0 1,-1 0,-2 -2,-5 -3,-6 -1,-1 -2,-1 -2,0 -1,0 -1,1 0,2z"/>
  <path fill="#333333" d="M2 12c1,1 1,0 2,0 0,-2 1,-4 2,-5 1,-1 1,-2 1,-2 -1,-1 -2,-1 -2,0 -2,1 -3,4 -4,6 0,1 1,1 1,1z"/>
  <path fill="#D8292D" d="M21 14c0,0 0,0 0,0l-6 -1c0,-1 0,-2 -1,-3l1 -6c0,0 0,0 0,0 1,-2 -1,-4 -3,-4 -3,0 -4,2 -4,4 0,0 0,0 0,0l2 6c-1,1 -2,2 -2,3l-5 1c0,0 0,0 0,0 -3,1 -4,3 -3,5 2,2 4,3 6,1 0,0 0,0 0,0l4 -4c0,0 0,0 1,0l0 12 -6 0c-1,0 -2,0 -2,1 0,1 1,1 2,1l14 0c0,0 1,0 1,-1 0,-1 -1,-1 -1,-1l-6 0 0 -12c0,0 0,0 0,0l4 4c0,0 0,0 0,0 2,2 5,1 6,-1 1,-2 0,-4 -2,-5zm-10 -1c0,-1 0,-1 1,-1 0,0 1,0 1,1 0,1 -1,1 -1,1 -1,0 -1,0 -1,-1zm1 -11c0,0 1,1 1,2l-1 4 -1 -4c-1,-1 0,-2 1,-2zm-8 17c0,0 -1,0 -1,-1 -1,0 -1,-1 0,-1l5 -2 -4 4zm17 -1c0,1 -1,1 -2,1l-3 -4 4 2c1,0 1,1 1,1z"/>
 </g>
</svg>
