<?xml version="1.0" encoding="UTF-8"?>
<!DOCTYPE svg PUBLIC "-//W3C//DTD SVG 1.1//EN" "http://www.w3.org/Graphics/SVG/1.1/DTD/svg11.dtd">
<!-- Creator: CorelDRAW X7 -->
<svg xmlns="http://www.w3.org/2000/svg" xml:space="preserve" width="500px" height="500px" version="1.1" shape-rendering="geometricPrecision" text-rendering="geometricPrecision" image-rendering="optimizeQuality" fill-rule="evenodd" clip-rule="evenodd"
viewBox="0 0 63 63"
 xmlns:xlink="http://www.w3.org/1999/xlink">
 <g id="Layer_x0020_1">
  <metadata id="CorelCorpID_0Corel-Layer"/>
  <path id="_202405160656icon-30c_x0020__x0028_1_x0029_.svg" fill="#D8292D" d="M44 13c-3,-3 -8,-4 -13,-4 -4,0 -9,1 -12,4 -3,3 -5,7 -5,12 0,5 2,8 4,11 3,3 5,6 5,10l0 3c0,3 2,5 5,5l7 0c3,0 5,-2 5,-5l0 -3c0,-4 2,-7 4,-10 3,-3 5,-6 5,-11 0,-5 -2,-9 -5,-12zm-7 36c0,1 -1,1 -2,1l-7 0c-1,0 -2,0 -2,-1l0 -1 5 0 0 0c0,0 0,0 0,0l6 0 0 1zm-6 -23c-1,0 -1,1 -1,2l0 5c-2,-1 -4,-2 -4,-4 0,-2 1,-3 3,-6 1,0 2,-1 2,-2 1,1 2,2 3,2 2,3 3,4 3,6 0,2 -2,3 -4,4l0 -5c0,-1 -1,-2 -2,-2zm10 8c-2,3 -4,6 -4,10l-4 0 0 -7c2,-1 3,-1 5,-2 1,-2 2,-4 2,-6 0,-3 -2,-5 -4,-8 -1,-1 -2,-3 -3,-4 0,-1 -1,-1 -2,-1 0,0 -1,0 -1,1 -1,1 -3,3 -4,4 -2,3 -3,5 -3,8 0,2 0,4 2,6 1,1 3,1 5,2l0 7 -4 0c-1,-4 -3,-7 -5,-10 -2,-3 -4,-6 -4,-9 0,-8 6,-13 14,-13 9,0 14,5 14,13 0,3 -1,6 -4,9z"/>
  <rect fill="none" width="62.6929" height="62.6929"/>
 </g>
</svg>
