<?xml version="1.0" encoding="UTF-8"?>
<!DOCTYPE svg PUBLIC "-//W3C//DTD SVG 1.1//EN" "http://www.w3.org/Graphics/SVG/1.1/DTD/svg11.dtd">
<!-- Creator: CorelDRAW X7 -->
<svg xmlns="http://www.w3.org/2000/svg" xml:space="preserve" width="89px" height="89px" version="1.1" shape-rendering="geometricPrecision" text-rendering="geometricPrecision" image-rendering="optimizeQuality" fill-rule="evenodd" clip-rule="evenodd"
viewBox="0 0 7 7"
 xmlns:xlink="http://www.w3.org/1999/xlink">
 <g id="Layer_x0020_1">
  <metadata id="CorelCorpID_0Corel-Layer"/>
  <path id="Brand-1715842564.svg" fill="#D8292D" d="M7 4c0,0 -1,1 -1,1 0,0 0,0 0,0 0,0 0,-1 0,-1 0,0 0,0 0,0 0,0 0,0 0,0 1,0 1,0 1,0 0,0 0,0 0,-1 0,0 0,0 0,0 0,1 -1,1 -1,1 0,0 0,0 0,0 0,0 0,0 0,0 0,-1 0,-1 0,-2 0,0 0,0 0,0 0,0 0,0 0,-1 0,0 0,0 0,0 0,0 0,0 0,0 0,1 0,1 -1,1 0,-1 0,-1 -1,-1 0,0 0,0 0,0 0,0 0,-1 0,-1 0,0 0,0 -1,0 0,0 0,0 0,0 1,1 1,1 1,1 -1,0 -1,0 -2,1 0,-1 0,-1 0,-1 0,0 0,0 -1,0 0,0 0,0 0,0 0,0 0,0 0,0 1,0 1,1 1,1 -1,0 -1,1 -1,1 0,0 0,0 0,0 0,0 -1,0 -1,0 0,1 0,1 0,1 0,0 0,0 0,0 1,0 1,0 1,0 0,0 0,0 0,0 0,0 0,0 0,1 0,0 0,0 0,0 0,0 0,-1 -1,-1 0,0 0,1 0,1l0 2c0,0 0,0 0,0l7 0c0,0 0,0 0,0l0 -2c0,0 0,-1 0,-1zm-3 -2c1,0 2,1 2,2 0,0 -1,0 -1,1 0,0 0,-1 0,-1 -1,0 -1,1 -1,1 0,0 0,0 0,0l0 -1c0,0 0,0 0,-1 0,0 0,0 0,0l-1 0 1 0c0,-1 0,-1 0,-1 0,0 -1,0 -1,0l0 1c0,1 0,1 0,1 0,0 0,0 0,0l1 0 -1 1c0,0 0,0 0,0 0,0 0,-1 -1,-1 0,0 0,1 0,1 0,-1 0,-1 0,-1 0,-1 1,-2 2,-2zm3 5l-6 0 0 -2c0,0 0,0 0,0 0,0 0,0 0,0 1,0 1,0 1,0 0,0 0,0 0,0 1,0 1,0 1,0 0,0 0,0 1,0 0,0 0,0 0,0 0,0 1,0 1,0 0,0 0,0 0,0 0,0 1,0 1,0 0,0 0,0 1,0 0,0 0,0 0,0l0 2z"/>
 </g>
</svg>
