<?xml version="1.0" encoding="UTF-8"?>
<!DOCTYPE svg PUBLIC "-//W3C//DTD SVG 1.1//EN" "http://www.w3.org/Graphics/SVG/1.1/DTD/svg11.dtd">
<!-- Creator: CorelDRAW X7 -->
<svg xmlns="http://www.w3.org/2000/svg" xml:space="preserve" width="500px" height="500px" version="1.1" shape-rendering="geometricPrecision" text-rendering="geometricPrecision" image-rendering="optimizeQuality" fill-rule="evenodd" clip-rule="evenodd"
viewBox="0 0 63 63"
 xmlns:xlink="http://www.w3.org/1999/xlink">
 <g id="Layer_x0020_1">
  <metadata id="CorelCorpID_0Corel-Layer"/>
  <g id="_2011497469328">
   <path fill="#333333" d="M39 18c3,2 4,5 5,8 0,1 1,2 2,1 1,0 1,-1 1,-2 0,-4 -2,-7 -5,-9 -1,-1 -2,-1 -3,0 0,1 0,2 0,2z"/>
   <path fill="#333333" d="M17 27c1,1 2,0 2,-1 0,-3 2,-6 4,-8 1,0 1,-1 0,-2 0,-1 -1,-1 -2,0 -3,2 -5,5 -6,9 0,1 1,2 2,2z"/>
   <path fill="#D8292D" d="M45 30c0,0 0,0 0,0l-8 -2c0,-2 -1,-4 -3,-4l3 -9c0,0 0,0 0,0 0,-4 -2,-7 -6,-7 -3,0 -6,3 -5,7 0,0 0,0 0,0l2 9c-1,0 -2,2 -2,4l-9 2c0,0 0,0 0,0 -3,1 -5,5 -3,8 2,3 6,4 9,1 0,0 0,0 0,0l6 -6c0,0 0,0 0,0l0 18 -9 0c-1,0 -1,1 -1,2 0,1 0,1 1,1l22 0c1,0 2,0 2,-1 0,-1 -1,-2 -2,-2l-9 0 0 -18c0,0 0,0 1,0l6 6c0,0 0,0 0,0 3,3 7,2 8,-1 2,-3 1,-7 -3,-8zm-16 -2c0,-1 1,-2 2,-2 1,0 2,1 2,2 0,1 -1,2 -2,2 -1,0 -2,-1 -2,-2zm2 -16c1,0 2,1 2,2l-2 7 -1 -7c-1,-1 0,-2 1,-2zm-11 25c-1,0 -2,0 -3,-1 0,-1 0,-2 1,-2l7 -2 -5 5zm25 -1c0,1 -2,1 -2,1l-5 -5 6 2c1,0 2,1 1,2z"/>
  </g>
  <rect fill="none" width="62.575" height="62.575"/>
 </g>
</svg>
