<?xml version="1.0" encoding="UTF-8"?>
<!DOCTYPE svg PUBLIC "-//W3C//DTD SVG 1.1//EN" "http://www.w3.org/Graphics/SVG/1.1/DTD/svg11.dtd">
<!-- Creator: CorelDRAW X7 -->
<svg xmlns="http://www.w3.org/2000/svg" xml:space="preserve" width="500px" height="500px" version="1.1" shape-rendering="geometricPrecision" text-rendering="geometricPrecision" image-rendering="optimizeQuality" fill-rule="evenodd" clip-rule="evenodd"
viewBox="0 0 53 53"
 xmlns:xlink="http://www.w3.org/1999/xlink">
 <g id="Layer_x0020_1">
  <metadata id="CorelCorpID_0Corel-Layer"/>
  <path id="Brand-1715842564.svg" fill="#D8292D" d="M44 31c-2,0 -3,1 -3,1 -1,0 -1,1 -2,1 0,-1 1,-3 1,-4 0,0 1,0 2,0 0,0 0,0 0,0 1,0 2,0 3,-1 1,-1 1,-2 0,-2 0,-1 -1,-1 -1,0 -1,0 -2,1 -2,1 0,0 0,0 0,0 -1,0 -1,0 -2,-1 0,-3 -1,-5 -2,-7 0,0 1,-1 1,-1 1,-1 2,-3 2,-4 0,-1 -1,-2 -2,-2 0,0 -1,1 -1,2 0,1 -1,2 -2,3 -2,-2 -4,-3 -7,-4 0,0 0,-1 0,-2 0,-1 0,-2 -2,-4 0,0 -1,0 -2,0 0,1 0,2 0,2 2,2 2,3 1,4 -3,0 -5,1 -7,2 -1,0 -1,-1 -1,-1 -1,-1 -3,-2 -4,-2 -1,0 -2,1 -2,2 0,0 1,1 2,1 1,0 2,1 2,2 -1,2 -3,4 -3,7 -1,0 -1,0 -2,0 -1,0 -2,0 -4,2 0,0 0,1 0,2 1,0 2,0 2,0 1,-1 2,-2 2,-2 1,0 1,1 2,1 0,2 0,4 1,6 -1,0 -1,-1 -2,-1 -1,0 -2,-1 -3,-1 -1,0 -2,1 -2,2l0 11c0,1 1,2 2,2l35 0c1,0 2,-1 2,-2l0 -11c0,-1 -1,-2 -2,-2zm-18 -15c6,0 11,5 11,11 0,1 0,3 -1,5 -1,-1 -2,-1 -3,-1 -2,0 -3,1 -4,1 0,0 -1,0 -1,0l3 -5c0,0 0,-1 0,-1 -1,-1 -1,-1 -2,-1l-3 0 2 -4c0,-1 0,-1 -1,-2 -1,0 -2,0 -2,1l-3 6c0,0 0,1 0,1 0,1 1,1 1,1l4 0 -2 4c0,0 -1,0 -1,0 -1,0 -2,-1 -4,-1 -1,0 -2,0 -3,1 -1,-2 -1,-4 -1,-5 0,-6 5,-11 10,-11zm17 27l-33 0 0 -9c0,1 0,1 1,1 0,0 1,1 3,1 2,0 3,-1 4,-1 1,-1 1,-1 2,-1 2,0 2,0 3,1 1,0 2,1 3,1 2,0 3,-1 4,-1 1,-1 1,-1 3,-1 1,0 1,0 2,1 1,0 2,1 4,1 2,0 2,-1 3,-1 0,0 1,0 1,-1l0 9z"/>
  <rect fill="none" width="52.8686" height="52.8686"/>
 </g>
</svg>
