<?xml version="1.0" encoding="UTF-8"?>
<!DOCTYPE svg PUBLIC "-//W3C//DTD SVG 1.1//EN" "http://www.w3.org/Graphics/SVG/1.1/DTD/svg11.dtd">
<!-- Creator: CorelDRAW X7 -->
<svg xmlns="http://www.w3.org/2000/svg" xml:space="preserve" width="500px" height="500px" version="1.1" shape-rendering="geometricPrecision" text-rendering="geometricPrecision" image-rendering="optimizeQuality" fill-rule="evenodd" clip-rule="evenodd"
viewBox="0 0 41 41"
 xmlns:xlink="http://www.w3.org/1999/xlink">
 <g id="Layer_x0020_1">
  <metadata id="CorelCorpID_0Corel-Layer"/>
  <g id="_2011497461808">
   <path fill="#D8292D" d="M35 29l-5 -13c0,-1 0,-1 -1,-1l-4 0c-1,0 -1,1 -1,1l0 6 -7 0 0 -6c0,0 0,-1 -1,-1l-4 0c-1,0 -1,0 -1,1l-5 13c0,0 0,0 0,0 0,1 0,1 0,1 0,0 1,0 1,0l12 0 0 3 -3 0c-1,0 -1,0 -1,1 0,0 0,1 1,1l9 0c1,0 1,-1 1,-1 0,-1 0,-1 -1,-1l-3 0 0 -3 12 0c0,0 1,0 1,0 0,0 0,-1 0,-1zm-9 -12l3 0 1 5 -4 0 0 -5zm-2 7l0 4 -7 0 0 -4 7 0zm-11 -7l2 0 0 5 -4 0 2 -5zm-3 7l5 0 0 4 -6 0 1 -4zm16 4l0 -4 5 0 1 4 -6 0z"/>
   <path fill="#333333" d="M18 13l3 0 -2 3c0,0 0,1 1,1 1,1 1,0 2,0l2 -5c0,0 0,-1 0,-1 0,0 -1,0 -1,0l-3 0 2 -3c0,-1 0,-2 -1,-2 -1,0 -1,0 -2,1l-2 4c0,1 0,1 0,1 0,1 1,1 1,1z"/>
  </g>
  <rect fill="none" width="41.0186" height="41.0186"/>
 </g>
</svg>
