<?xml version="1.0" encoding="UTF-8"?>
<svg xmlns="http://www.w3.org/2000/svg" version="1.1" xmlns:xlink="http://www.w3.org/1999/xlink" viewBox="0 0 123 120">
  <defs>
    <style>
      .cls-1 {
        fill: #181818;
      }

      .cls-1, .cls-2, .cls-3, .cls-4, .cls-5 {
        stroke-width: 0px;
      }

      .cls-6, .cls-4 {
        isolation: isolate;
      }

      .cls-2 {
        fill: #52c459;
      }

      .cls-7, .cls-8 {
        mix-blend-mode: screen;
      }

      .cls-9, .cls-4, .cls-8 {
        opacity: .5;
      }

      .cls-9, .cls-10 {
        mix-blend-mode: multiply;
      }

      .cls-3 {
        fill: #231f20;
      }

      .cls-4 {
        fill: url(#linear-gradient);
      }

      .cls-5 {
        fill: #d8292d;
      }
    </style>
    <linearGradient id="linear-gradient" x1="89.2" y1="87.7" x2="121.1" y2="87.1" gradientTransform="translate(0 122) scale(1 -1)" gradientUnits="userSpaceOnUse">
      <stop offset="0" stop-color="#fff"/>
      <stop offset=".1" stop-color="#fdffe4" stop-opacity=".8"/>
      <stop offset=".2" stop-color="#fbffcb" stop-opacity=".6"/>
      <stop offset=".4" stop-color="#f9ffb5" stop-opacity=".4"/>
      <stop offset=".5" stop-color="#f8ffa3" stop-opacity=".3"/>
      <stop offset=".6" stop-color="#f7ff95" stop-opacity=".1"/>
      <stop offset=".8" stop-color="#f6ff8b" stop-opacity="0"/>
      <stop offset=".9" stop-color="#f6ff85" stop-opacity="0"/>
      <stop offset="1" stop-color="#f6ff84" stop-opacity="0"/>
    </linearGradient>
  </defs>
  <g class="cls-6">
    <g id="Layer_1" data-name="Layer 1">
      <path class="cls-1" d="M19.3,102.2h5.5v-2.4h-6.2c-1.2,0-2.1.3-2.6.8-.5.5-.8,1.4-.8,2.6v5.5c0,1.1.3,1.9.8,2.5.5.5,1.4.8,2.5.8h4.1c.8,0,1.5,0,2.3-.2v-2.3h-2.2c-.3,0-.6.1-.9.1h-2.6c-.3,0-.5,0-.6-.2s-.2-.4-.2-.6v-5.5c0-.7.3-1,1-1h0Z"/>
      <path class="cls-1" d="M37.3,100.4c-.5-.5-1.4-.8-2.6-.8h-4.3c-1.2,0-2.1.3-2.6.8-.5.5-.8,1.4-.8,2.6v5.5c0,1.2.3,2.1.8,2.6.5.5,1.4.8,2.6.8h4.3c1.2,0,2.1-.3,2.6-.8.5-.5.8-1.4.8-2.6v-5.5c0-1.2-.3-2.1-.8-2.6ZM35,108.6c0,.7-.3,1-1,1h-2.9c-.7,0-1-.3-1-1v-5.5c0-.7.3-1,1-1h2.9c.7,0,1,.3,1,1v5.5Z"/>
      <path class="cls-1" d="M51.1,99.8l-3.5,6.4-3.5-6.4h-3.3v12.1h3.1v-6.7l2.4,4.3h2.4l2.4-4.3v6.7h3.1v-12.1h-3.3Z"/>
      <path class="cls-1" d="M67.4,100.6c-.5-.5-1.4-.8-2.6-.8h-7.3v12.1h3.1v-3.5h4.2c1.2,0,2.1-.3,2.6-.8.5-.5.8-1.4.8-2.6v-1.7c0-1.2-.3-2.1-.8-2.6ZM65.1,105c0,.7-.3,1-1,1h-3.5v-3.8h3.5c.7,0,1,.3,1,1v1.7Z"/>
      <path class="cls-1" d="M76.6,99.8h-3.5l-4.6,12.1h3.4s2.9-8.5,2.9-8.5l2.8,8.1.2.4h3.4l-4.6-12.1h0Z"/>
      <path class="cls-1" d="M90.6,99.8v7.3l-4.2-7.3h-3.3v12.1h3.1v-7.3l4.2,7.3h3.3v-12.1h-3.1Z"/>
      <path class="cls-1" d="M104.4,99.8l-2.9,5.9-2.9-5.9h-3.3l4.6,8.9v3.2h3.1v-3.2l4.6-8.9h-3.3,0Z"/>
      <path class="cls-1" d="M30.3,119.9v-3.7h1.7c.8,0,1.3.5,1.3,1.2s-.4,1.2-1.3,1.2h-1v1.3h-.8ZM32.5,117.4c0-.3-.2-.5-.6-.5h-.8v1h.8c.3,0,.6-.2.6-.5Z"/>
      <path class="cls-1" d="M34.6,118.4v-2.2h.8v2.2c0,.5.3.9.9.9s.9-.4.9-.9v-2.2h.8v2.2c0,.9-.5,1.6-1.7,1.6s-1.7-.6-1.7-1.6Z"/>
      <path class="cls-1" d="M40.4,119.9v-3h-1.1v-.7h3v.7h-1.1v3h-.8Z"/>
      <path class="cls-1" d="M46.6,119.9v-3h-1.1v-.7h3v.7h-1.1v3h-.8Z"/>
      <path class="cls-1" d="M52.1,119.9l-.2-.6h-1.6l-.2.6h-.9l1.4-3.7h1l1.4,3.7h-.9ZM51,117l-.6,1.6h1.2l-.6-1.6h0Z"/>
      <path class="cls-1" d="M53.7,118.1c0-1.2.9-1.9,2-1.9s1.3.4,1.5.8l-.7.4c-.2-.3-.5-.5-.9-.5-.7,0-1.2.5-1.2,1.2s.5,1.2,1.2,1.2.6-.1.8-.3v-.4h-1v-.7h1.8v1.4c-.4.4-.9.7-1.6.7-1.1,0-2-.8-2-1.9h0Z"/>
      <path class="cls-1" d="M58.7,119.9v-3.7h.8v3h1.6v.7h-2.4Z"/>
      <path class="cls-1" d="M62.4,119.9v-3.7h.8v3.7h-.8Z"/>
      <path class="cls-1" d="M67.3,119.9l-1.8-2.4v2.4h-.8v-3.7h.8l1.7,2.3v-2.3h.8v3.7h-.8Z"/>
      <path class="cls-1" d="M69.6,119.9v-3.7h2.6v.7h-1.9v.8h1.8v.7h-1.8v.9h1.9v.7h-2.6Z"/>
      <path class="cls-1" d="M78.4,119.9v-1.6h-1.8v1.6h-.8v-3.7h.8v1.5h1.8v-1.5h.8v3.7h-.8Z"/>
      <path class="cls-1" d="M80.8,119.9v-3.7h2.6v.7h-1.9v.8h1.8v.7h-1.8v.9h1.9v.7h-2.6Z"/>
      <path class="cls-1" d="M86.9,119.9l-.7-1.3h-.6v1.3h-.8v-3.7h1.7c.8,0,1.3.5,1.3,1.2s-.4,1-.8,1.1l.8,1.4h-.9ZM87,117.4c0-.3-.2-.5-.6-.5h-.8v1h.8c.3,0,.6-.2.6-.5Z"/>
      <path class="cls-1" d="M89.2,119.9v-3.7h2.6v.7h-1.9v.8h1.8v.7h-1.8v.9h1.9v.7h-2.6Z"/>
      <path class="cls-2" d="M122.8,56c0,2.7-.8,5.4-3.1,7.2,0,0,0,0,0,0,0,0,0,0,0,0-.4.2-.8.4-1.2.6,0,0,0,0,0,0-.6.2-1.1.4-1.8.6-.3,0-.6.1-.9.2,0,0-.1,0-.2,0-.4,0-.9.2-1.4.2,0,0-.1,0-.2,0-8.4,1-20.9-1.8-31.5-4.9-.4-.1-.8-.3-1.3-.4-.4-.1-.8-.3-1.2-.4-.5-.2-1-.3-1.5-.5-1.3-.4-2.5-.8-3.7-1.2,0,0,0,0,0,0-.5-.2-1.1-.3-1.6-.5-.2,0-.3-.1-.5-.2-.8-.3-1.7-.6-2.4-.8-1.6-.5-2.9-1-4.1-1.4-.8-.3-1.5-.5-2.3-.7-.5-.1-.9-.3-1.4-.4-.7-.2-1.4-.4-2.1-.5-.9-.2-1.8-.3-2.7-.5-.2,0-.3,0-.5,0-2.2-.3-4.3-.4-6.1-.3-.2,0-.5,0-.7,0-.2,0-.4,0-.7,0-.2,0-.3,0-.5,0-.2,0-.4,0-.6,0,0,0-.2,0-.3,0-.3,0-.7,0-1,.1-.9.1-1.7.3-2.4.4-.3,0-.6.1-.8.2-.2,0-.3,0-.4.1-.1,0-.3,0-.4,0-.8.2-1.6.5-2.1.7,0,0-.2,0-.3,0-.4.2-.8.3-1,.4,0,0,0,0-.1,0,0,0,0,0,0,0,0,0,0,0,0,0,0,0,0,0,0,0,0,0,0,0,0,0,0,0,0,0,0,0,0,0,0,0,0,0,0,0,0,0,0,0,2.9-.5,5.7-.7,8.4-.7s.6,0,.9,0h0c.2,0,.4,0,.6,0,.2,0,.3,0,.5,0,.3,0,.5,0,.8,0,0,0,.1,0,.2,0,.3,0,.5,0,.8,0,.3,0,.6,0,1,0,0,0,0,0,0,0,.2,0,.5,0,.7,0,.2,0,.4,0,.5,0,0,0,0,0,.1,0,.2,0,.5,0,.7,0,.3,0,.5,0,.8.1.3,0,.6,0,.9.2.3,0,.6.1.9.2.3,0,.6.1.9.2.4,0,.7.2,1.1.2.2,0,.5.1.7.2.3,0,.6.1.9.2.6.2,1.1.3,1.6.5.3,0,.6.2.9.3.3,0,.5.2.8.3.2,0,.5.2.7.3,0,0,0,0,0,0h0s0,0,0,0c.3,0,.5.2.8.3.3.1.5.2.8.3.2,0,.5.2.7.3.1,0,.3.1.4.2.3.1.5.2.8.3.2,0,.4.2.7.3.3.1.5.3.8.4.1,0,.3.1.4.2.2,0,.4.2.6.3.2,0,.4.2.6.3,8.9,4.7,13.6,10.6,13.6,10.6,0,0,0,.2,0,.3-.1.9-1.3,3.3-1.5,3.8-.5,1.2-1.1,2.3-1.8,3.4-5.4,8.7-17,11-26.3,8.2-7.4-2.2-12.8-8-19.4-11.7-4.9-2.7-10.2-4.8-15.7-6-5-1.1-10.2-1.4-15.2-.7-.7,0-3,.3-4.5.8h0c-.5.2-.9.4-1.1.6,6-10.4,12.5-17.4,19.1-21.9,5.2-3.6,10.3-5.6,15.2-6.7h0c7-1.5,13.6-1,18.9.1,4.9,1,8.8,2.4,11.2,3.1,4.9,1.5,13.9,6.5,23.5,10.2,8.6,3.4,17.7,5.8,24.8,3.8,8.5-2.3,8.7-8,7.4-12.6.2.3,2.7,5.5,2.7,10.5h0Z"/>
      <path class="cls-5" d="M122.8,56c0,2.7-.8,5.4-3.1,7.2,0,0,0,0,0,0,0,0,0,0,0,0-.4.2-.8.4-1.2.6,0,0,0,0,0,0-.6.2-1.1.4-1.8.6-.3,0-.6.1-.9.2,0,0-.1,0-.2,0-.4,0-.9.2-1.4.2,0,0-.1,0-.2,0-8.4,1-20.9-1.8-31.5-4.9-.4-.1-.8-.3-1.3-.4-.4-.1-.8-.3-1.2-.4-.5-.2-1-.3-1.5-.5-1.3-.4-2.5-.8-3.7-1.2,0,0,0,0,0,0-.5-.2-1.1-.3-1.6-.5-.2,0-.3-.1-.5-.2-.8-.3-1.7-.6-2.4-.8-1.6-.5-2.9-1-4.1-1.4-.8-.3-1.5-.5-2.3-.7-.5-.1-.9-.3-1.4-.4-.7-.2-1.4-.4-2.1-.5-.9-.2-1.8-.3-2.7-.5-.2,0-.3,0-.5,0-2.2-.3-4.3-.4-6.1-.3-.2,0-.5,0-.7,0-.2,0-.4,0-.7,0-.2,0-.3,0-.5,0-.2,0-.4,0-.6,0,0,0-.2,0-.3,0-.3,0-.7,0-1,.1-.9.1-1.7.3-2.4.4-.3,0-.6.1-.8.2-.2,0-.3,0-.4.1-.1,0-.3,0-.4,0-.8.2-1.6.5-2.1.7,0,0-.2,0-.3,0-.4.2-.8.3-1,.4,0,0,0,0-.1,0,0,0,0,0,0,0,0,0,0,0,0,0,0,0,0,0,0,0,0,0,0,0,0,0,0,0,0,0,0,0,0,0,0,0,0,0,0,0,0,0,0,0,2.9-.5,5.7-.7,8.4-.7s.6,0,.9,0h0c.2,0,.4,0,.6,0,.2,0,.3,0,.5,0,.3,0,.5,0,.8,0,0,0,.1,0,.2,0,.3,0,.5,0,.8,0,.3,0,.6,0,1,0,0,0,0,0,0,0,.2,0,.5,0,.7,0,.2,0,.4,0,.5,0,0,0,0,0,.1,0,.2,0,.5,0,.7,0,.3,0,.5,0,.8.1.3,0,.6,0,.9.2.3,0,.6.1.9.2.3,0,.6.1.9.2.4,0,.7.2,1.1.2.2,0,.5.1.7.2.3,0,.6.1.9.2.6.2,1.1.3,1.6.5.3,0,.6.2.9.3.3,0,.5.2.8.3.2,0,.5.2.7.3,0,0,0,0,0,0h0s0,0,0,0c.3,0,.5.2.8.3.3.1.5.2.8.3.2,0,.5.2.7.3.1,0,.3.1.4.2.3.1.5.2.8.3.2,0,.4.2.7.3.3.1.5.3.8.4.1,0,.3.1.4.2.2,0,.4.2.6.3.2,0,.4.2.6.3,8.9,4.7,13.6,10.6,13.6,10.6,0,0,0,.2,0,.3-.1.9-1.3,3.3-1.5,3.8-.5,1.2-1.1,2.3-1.8,3.4-5.4,8.7-17,11-26.3,8.2-7.4-2.2-12.8-8-19.4-11.7-4.9-2.7-10.2-4.8-15.7-6-5-1.1-10.2-1.4-15.2-.7-.7,0-3,.3-4.5.8h0c-.5.2-.9.4-1.1.6,6-10.4,12.5-17.4,19.1-21.9,5.2-3.6,10.3-5.6,15.2-6.7h0c7-1.5,13.6-1,18.9.1,4.9,1,8.8,2.4,11.2,3.1,4.9,1.5,13.9,6.5,23.5,10.2,8.6,3.4,17.7,5.8,24.8,3.8,8.5-2.3,8.7-8,7.4-12.6.2.3,2.7,5.5,2.7,10.5h0Z"/>
      <g class="cls-9">
        <path class="cls-5" d="M.6,68.9c.1,0,.3-.1.4-.2h0c1.4-.5,3.8-.7,4.5-.8,5.1-.8,10.3-.4,15.2.7,5.5,1.2,10.8,3.3,15.7,6,6.6,3.6,12,9.5,19.4,11.7,9.3,2.8,20.9.5,26.3-8.2.7-1.1,1.3-2.3,1.8-3.4.2-.4,1.1-2.3,1.4-3.4-5.8,7.1-16.3,8.8-24.9,6.3-6.8-2-11.9-7.1-17.8-10.7h0c-20.7-11.6-38.5-.4-42.1,2.1h0Z"/>
      </g>
      <g class="cls-8">
        <path class="cls-5" d="M.6,68.9c.1,0,.3-.1.4-.2h0c.6-.2,1.3-.3,2.1-.5,6.4-3.7,21.9-10.4,39.5-.5h0c5.9,3.6,11,8.7,17.8,10.7,8.3,2.5,18.4.9,24.3-5.5.3-.6.5-1.2.6-1.7-5.8,7.1-16.3,8.8-24.9,6.3-6.8-2-11.9-7.1-17.8-10.7h0c-20.7-11.6-38.5-.4-42.1,2.1h0Z"/>
      </g>
      <g class="cls-7">
        <path class="cls-5" d="M122.8,56c0,2.7-.8,5.4-3.1,7.2,0,0,0,0,0,0h0c-.4.2-.8.4-1.2.6,0,0,0,0,0,0-7.9,3.2-23.3-.1-35.9-3.9-.4-.1-.8-.2-1.3-.4-.4-.1-.8-.3-1.2-.4-.5-.2-1-.3-1.5-.5-1.3-.4-2.5-.8-3.7-1.2,0,0,0,0,0,0-.5-.2-1.1-.3-1.6-.5-.2,0-.3-.1-.5-.2-.8-.3-1.6-.5-2.4-.8h0c-1.6-.5-2.9-1-4.1-1.4-.8-.3-1.5-.5-2.3-.7-.5-.1-.9-.3-1.4-.4-.7-.2-1.4-.4-2.1-.5-.9-.2-1.8-.3-2.7-.5-.2,0-.3,0-.5,0-2.2-.3-4.3-.4-6.1-.3-.2,0-.5,0-.7,0-.2,0-.4,0-.7,0-.2,0-.3,0-.5,0-.2,0-.4,0-.6,0,0,0-.2,0-.3,0-.3,0-.7,0-1,.1-.9.1-1.7.3-2.4.4-.3,0-.6.1-.8.2-.2,0-.3,0-.4.1-.1,0-.3,0-.4,0-.8.2-1.6.5-2.1.7,0,0-.2,0-.3,0-.4.2-.8.3-1,.4,0,0,0,0-.1,0,0,0,0,0,0,0,0,0,0,0,0,0,.7-.3,2.5-1.2,5-2.1,1-.3,2-.7,3.1-.9h0c6.1-1.6,14.6.7,18.1,1.7h.2c0,0,0,0,0,0,.4.1.8.3,1.2.4,0,0,0,0,0,0,0,0,0,0,0,0,0,0,0,0,0,0,1.3.4,2.1.8,2.1.8.7.2,1.5.5,2.2.8.2,0,.3.1.5.2.5.2,1,.3,1.6.5,0,0,0,0,0,0,1.2.4,2.4.8,3.7,1.2.5.2,1,.3,1.5.5.4.1.8.3,1.2.4.4.1.8.2,1.3.4,17.1,5,39.3,9.4,41-2.3h0Z"/>
      </g>
      <path class="cls-1" d="M51.5,26.3v5.8h-6.1v-5.8h6.1Z"/>
      <path class="cls-1" d="M60,26.3v5.8h-6.5v-5.8h6.5Z"/>
      <path class="cls-1" d="M51.5,33.9v3.8c-.9-.1-1.7-.3-2.6-.4-1.2-.1-2.4-.2-3.6-.3v-3.1h6.1Z"/>
      <path class="cls-1" d="M60,33.9v5.8c-.2,0-.4-.1-.6-.2-2.1-.6-4-1.1-6-1.5v-4.1h6.5Z"/>
      <path class="cls-3" d="M120,45.5h-3.3c-3.5,0-7.4,0-11.4,0-2.7,0-5.4,0-8,0-2.2,0-4.3,0-6.2,0-6.7,0-11.6,0-11.6,0h0s-.7,0-.7,0c-8.4-11-17.5-20.9-25.9-31.9-5,6.1-12.9,15.5-20.3,24.5-.3,0-.6.1-.9.2-.4.1-.8.2-1.3.3-1.4.4-2.7.9-4.1,1.4-.4.2-.9.4-1.3.6-1.3.6-2.6,1.2-3.8,1.9-1.4.8-2.8,1.6-4.1,2.6-1.8,1.2-3.5,2.6-5.2,4.1-.2.2-.4.4-.6.6,2.1-2.6,4.9-6,7.5-9.1,2.9-3.5,5.5-6.7,6.7-8.1,0-.1.2-.2.3-.3C34.7,21.5,43.7,10.7,52.9.2l.2-.2h0c.1.1.2.3.3.4,8.6,10.5,17.4,20.9,26.2,31.4l4.7,5.6h28.9l1.1,1.3,5,5.9.7.8h0Z"/>
      <path class="cls-5" d="M111,34.7h-25.6L55.9.4h0c0,0,30.5,5.9,30.5,5.9l14.9,17.4h0l9.5,11.1Z"/>
      <g class="cls-10">
        <path class="cls-3" d="M84.2,37.4l6.7,8.1h14.3v-8.1h-21Z"/>
      </g>
      <g class="cls-10">
        <path class="cls-5" d="M56,.3l29.3,34.4,1.2-28.5L56,.3Z"/>
      </g>
      <path class="cls-3" d="M14.6,45.3L53.1,0l31.2,37.4L52.9,2.2,14.6,45.3Z"/>
      <path class="cls-4" d="M85.4,34.7h25.6l-10.4-.7-15.3.7Z"/>
    </g>
  </g>
</svg>