<?xml version="1.0" encoding="UTF-8"?>
<svg xmlns="http://www.w3.org/2000/svg" version="1.1" viewBox="0 0 85 120">
  <defs>
    <style>
      .cls-1 {
        fill: #181818;
      }

      .cls-1, .cls-2, .cls-3, .cls-4 {
        stroke-width: 0px;
      }

      .cls-5 {
        isolation: isolate;
      }

      .cls-6 {
        mix-blend-mode: screen;
      }

      .cls-2, .cls-3 {
        fill: #231f20;
      }

      .cls-2, .cls-4 {
        fill-rule: evenodd;
      }

      .cls-4 {
        fill: #d8292d;
      }

      .cls-7 {
        mix-blend-mode: multiply;
      }
    </style>
  </defs>
  <g class="cls-5">
    <g id="Layer_1" data-name="Layer 1">
      <path class="cls-1" d="M3.8,103.8h5v-2.2H3.2c-1.1,0-1.9.2-2.4.7-.5.5-.7,1.3-.7,2.4v5c0,1,.2,1.8.7,2.2.5.5,1.2.7,2.3.7h3.7c.7,0,1.4,0,2.1-.2v-2.1h-2c-.3,0-.6.1-.8.1h-2.4c-.2,0-.4,0-.6-.2-.1-.1-.2-.3-.2-.6v-5c0-.6.3-.9.9-.9h0Z"/>
      <path class="cls-1" d="M20.2,102.2c-.5-.5-1.3-.7-2.4-.7h-3.9c-1.1,0-1.9.2-2.4.7s-.7,1.3-.7,2.4v5c0,1.1.2,1.9.7,2.4.5.5,1.3.8,2.4.8h3.9c1.1,0,1.9-.2,2.4-.8.5-.5.7-1.3.7-2.4v-5c0-1.1-.2-1.9-.7-2.4ZM18.1,109.6c0,.6-.3.9-.9.9h-2.7c-.6,0-.9-.3-.9-.9v-5c0-.6.3-.9.9-.9h2.7c.6,0,.9.3.9.9v5Z"/>
      <path class="cls-1" d="M32.8,101.6l-3.2,5.8-3.2-5.8h-3v11h2.8v-6.1l2.2,3.9h2.2l2.2-3.9v6.1h2.8v-11h-3Z"/>
      <path class="cls-1" d="M47.7,102.3c-.5-.5-1.3-.8-2.4-.8h-6.6v11h2.8v-3.2h3.8c1.1,0,1.9-.2,2.4-.8.5-.5.7-1.3.7-2.4v-1.6c0-1.1-.2-1.9-.7-2.4ZM45.6,106.3c0,.6-.3.9-.9.9h-3.2v-3.5h3.2c.6,0,.9.3.9.9v1.6Z"/>
      <path class="cls-1" d="M56.1,101.6h-3.2l-4.2,11h3.1s2.7-7.7,2.7-7.7l2.5,7.3v.4h3.2l-4.2-11h0Z"/>
      <path class="cls-1" d="M68.8,101.6v6.6l-3.8-6.6h-3v11h2.8v-6.6l3.8,6.6h3v-11h-2.8Z"/>
      <path class="cls-1" d="M81.4,101.6l-2.6,5.4-2.6-5.4h-3l4.2,8.1v2.9h2.8v-2.9l4.2-8.1h-3,0Z"/>
      <path class="cls-1" d="M13.9,119.9v-3.4h1.6c.7,0,1.1.5,1.1,1.1s-.4,1.1-1.1,1.1h-.9v1.2h-.7ZM15.8,117.6c0-.3-.2-.5-.5-.5h-.8v.9h.8c.3,0,.5-.2.5-.5Z"/>
      <path class="cls-1" d="M17.8,118.6v-2h.7v2c0,.5.3.8.8.8s.8-.3.8-.8v-2h.7v2c0,.8-.5,1.4-1.5,1.4s-1.5-.6-1.5-1.4Z"/>
      <path class="cls-1" d="M23,119.9v-2.8h-1v-.6h2.7v.6h-1v2.8h-.7Z"/>
      <path class="cls-1" d="M28.7,119.9v-2.8h-1v-.6h2.7v.6h-1v2.8h-.7Z"/>
      <path class="cls-1" d="M33.7,119.9l-.2-.6h-1.5l-.2.6h-.8l1.3-3.4h.9l1.3,3.4h-.8ZM32.7,117.3l-.5,1.5h1.1l-.5-1.5h0Z"/>
      <path class="cls-1" d="M35.2,118.2c0-1.1.8-1.8,1.8-1.8s1.1.4,1.4.8l-.6.3c-.2-.2-.4-.4-.8-.4-.6,0-1.1.5-1.1,1.1s.4,1.1,1.1,1.1.6-.1.7-.3v-.4h-.9v-.6h1.6v1.3c-.3.4-.8.6-1.4.6-1,0-1.8-.7-1.8-1.8h0Z"/>
      <path class="cls-1" d="M39.7,119.9v-3.4h.7v2.8h1.4v.6h-2.2Z"/>
      <path class="cls-1" d="M43.1,119.9v-3.4h.7v3.4h-.7Z"/>
      <path class="cls-1" d="M47.5,119.9l-1.6-2.2v2.2h-.7v-3.4h.7l1.6,2.1v-2.1h.7v3.4h-.7Z"/>
      <path class="cls-1" d="M49.6,119.9v-3.4h2.4v.6h-1.7v.7h1.7v.6h-1.7v.8h1.7v.6h-2.4Z"/>
      <path class="cls-1" d="M57.7,119.9v-1.4h-1.6v1.4h-.7v-3.4h.7v1.3h1.6v-1.3h.7v3.4h-.7Z"/>
      <path class="cls-1" d="M59.8,119.9v-3.4h2.4v.6h-1.7v.7h1.7v.6h-1.7v.8h1.7v.6h-2.4Z"/>
      <path class="cls-1" d="M65.4,119.9l-.7-1.2h-.5v1.2h-.7v-3.4h1.6c.7,0,1.1.5,1.1,1.1s-.4.9-.7,1l.8,1.3h-.8ZM65.5,117.6c0-.3-.2-.5-.5-.5h-.8v.9h.8c.3,0,.5-.2.5-.5Z"/>
      <path class="cls-1" d="M67.5,119.9v-3.4h2.4v.6h-1.7v.7h1.7v.6h-1.7v.8h1.7v.6h-2.4Z"/>
      <path class="cls-3" d="M59.7,14.4L42,0,5.3,29.9h12.5v6.6c0,3.6,1,7.1,2.8,10.2.7,1.1,1.4,2.1,2.3,3.1,2.8,3.1,6,6,8.6,8.5.6.5,1.1,1,1.7,1.5,3,2.7,6.4,5.8,8.9,9.5,2.4-3.7,5.9-6.8,8.9-9.5.6-.5,1.1-1,1.7-1.5,2.6-2.4,5.8-5.4,8.6-8.5,3.3-3.6,5.1-8.4,5.1-13.3v-6.6h12.5l-19-15.5ZM60.7,25.6v10.8c0,3.5-1.3,6.9-3.7,9.6-2.6,2.9-5.7,5.8-8.2,8.1-.5.5-1.1,1-1.6,1.5-1.6,1.4-3.4,3.1-5.1,4.9-1.7-1.8-3.5-3.5-5.1-4.9h0s0,0,0,0c-.6-.5-1.1-1-1.6-1.5h-.1c-2.5-2.4-5.6-5.3-8.1-8.1-1-1.1-1.8-2.3-2.4-3.7-.8-1.8-1.3-3.9-1.3-5.9v-10.4h-3.8L42,7.1h0l15.5,12.8,7,5.8h-3.8Z"/>
      <path class="cls-3" d="M48.8,54.1c-.5.5-1.1,1-1.6,1.5-1.6,1.4-3.4,3.1-5.1,4.9-1.7-1.8-3.5-3.5-5.1-4.9h0s0,0,0,0c-.6-.5-1.1-1-1.6-1.5h-.1c-2.5-2.4-5.6-5.3-8.1-8.1-1-1.1-1.8-2.3-2.4-3.7-.8-1.8-1.3-3.9-1.3-5.9v.8c0,2.1.4,4.1,1.3,5.9.6,1.3,1.4,2.5,2.4,3.7,2.5,2.8,5.6,5.7,8.1,8h.1c.5.6,1.1,1.1,1.6,1.6h0c1.6,1.5,3.4,3.1,5.1,4.9,1.8-1.8,3.5-3.5,5.1-4.9.6-.5,1.1-1,1.6-1.5,2.5-2.3,5.6-5.2,8.2-8.1,2.4-2.6,3.7-6,3.7-9.6v-.8c0,3.5-1.3,6.9-3.7,9.6-2.6,2.9-5.7,5.8-8.2,8.1Z"/>
      <path class="cls-4" d="M78.7,77.1c-.8,1.3-1.7,2.5-2.7,3.7,0,0,0,0,0,0-.8,1.1-1.9,2.2-3.3,3.5,0,0,0,0,0,0-2.3,2.1-5,3.8-7.9,5.2-.7.4-1.5.7-2.3,1,0,0,0,0,0,0-6.2,3.1-13.1,4.8-20.4,4.8s-14.3-1.7-20.4-4.8c-.8-.3-1.6-.7-2.3-1.1-2.9-1.4-5.6-3.1-7.9-5.2,0,0,0,0,0,0-1.4-1.2-2.5-2.4-3.4-3.5,0,0,0,0,0,0-1-1.2-1.9-2.4-2.7-3.7C1.3,70.6-.4,62.8.7,55c.4-2.8,1.2-5.6,2.4-8.3,2.9-6.7,7.8-11.9,13.7-15.3-9.5,8.8,2,19.8,12.3,29.4,6.7,6.2,15.6,13,11.3,22.9h0c0,0,0,.1,0,.1-.8,1.7-2.7,2.6-4.5,2.3-23.5-4-27.3-32.9-27.7-36.7,0,0,0,0,0,0,0-.2,0-.3,0-.3-.8,9,1.6,17,5.3,23.5.4.6.8,1.3,1.2,2,0,0,0,0,0,0,1.1,1.8,2.3,3.4,3.5,5,.8,1,1.7,1.9,2.7,2.7,5.2,4.6,12.1,7.3,18.9,8.1,1.2.1,2.4.2,3.6,0,.8,0,1.7-.2,2.5-.3,7.4-1.2,15.2-4.5,20-10.5,1.2-1.5,2.4-3.2,3.6-5,0,0,0,0,0,0,.4-.7.8-1.4,1.2-2,3.6-6.5,6.1-14.5,5.3-23.5-.1,1.3-3.1,32.8-27.7,37-1.9.3-3.8-.6-4.6-2.4h0c-4.3-9.9,4.6-16.7,11.3-22.9,10.3-9.5,21.8-20.6,12.3-29.4,5.9,3.4,10.8,8.6,13.7,15.3,1.2,2.7,2,5.5,2.4,8.3,1.2,7.8-.6,15.7-4.6,22.2h0Z"/>
      <g class="cls-6">
        <path class="cls-4" d="M78.7,77.1c-.8,1.3-1.7,2.5-2.7,3.7,0,0,0,0,0,0-.8,1.1-1.9,2.2-3.3,3.5,0,0,0,0,0,0-2.3,2.1-5,3.8-7.9,5.2-.7.4-1.5.7-2.3,1,0,0,0,0,0,0-6.2,3.1-13.1,4.8-20.4,4.8s-14.3-1.7-20.4-4.8c-.8-.3-1.6-.7-2.3-1-2.9-1.4-5.6-3.1-7.9-5.2,0,0,0,0,0,0-1.4-1.2-2.5-2.4-3.4-3.5,0,0,0,0,0,0-1-1.2-1.9-2.4-2.7-3.7C1.3,70.6-.4,62.8.7,55c.4-2.8,1.2-5.6,2.4-8.3,2.9-6.7,7.8-11.9,13.7-15.3-.5.4-.9.9-1.3,1.3-5.1,3.3-9.3,8.2-11.9,14.2-1.2,2.7-1.9,5.4-2.4,8.2-1.1,7.7.6,15.5,4.6,21.9.8,1.3,1.7,2.5,2.6,3.6,0,0,0,0,0,0,.8,1,1.9,2.2,3.3,3.4,0,0,0,0,0,0,2.3,2,4.9,3.8,7.8,5.1.7.4,1.5.7,2.3,1,6.1,3,12.9,4.7,20.2,4.7s14.1-1.7,20.2-4.7c0,0,0,0,0,0,.8-.3,1.5-.7,2.2-1,2.9-1.4,5.5-3.1,7.8-5.1,0,0,0,0,0,0,1.4-1.2,2.5-2.4,3.3-3.4,0,0,0,0,0,0,1-1.2,1.8-2.4,2.6-3.7,4-6.4,5.7-14.2,4.5-21.9-.4-2.8-1.2-5.5-2.4-8.2-2.6-6-6.8-10.8-11.9-14.2-.4-.4-.8-.9-1.3-1.3,5.9,3.4,10.8,8.6,13.7,15.3,1.2,2.7,2,5.5,2.4,8.3,1.2,7.8-.6,15.7-4.6,22.2h0Z"/>
        <path class="cls-4" d="M70.6,72.5c-.4.6-.8,1.3-1.2,2,0,0,0,0,0,0-1.1,1.8-2.3,3.4-3.6,5-4.8,5.9-12.6,9.2-20,10.5-.8.1-1.7.2-2.5.3-1.2.1-2.4,0-3.6,0-6.9-.8-13.7-3.5-18.9-8.1-.9-.8-1.9-1.7-2.7-2.7-1.2-1.5-2.4-3.2-3.5-5,0,0,0,0,0,0-.4-.7-.8-1.4-1.2-2-3.6-6.5-6.1-14.5-5.3-23.5,0,0,0,.2,0,.3,0,0,0,0,0,0,0,.4.1,1,.2,1.8-.3,8.1,2,15.3,5.3,21.3.4.6.8,1.3,1.2,2,0,0,0,0,0,0,1.1,1.8,2.3,3.4,3.5,4.9.8,1,1.7,1.8,2.6,2.7,5.2,4.5,11.9,7.2,18.7,8,1.2.1,2.3.2,3.5,0,.8,0,1.7-.2,2.5-.3,7.3-1.2,15-4.5,19.8-10.3,1.2-1.5,2.4-3.1,3.5-4.9,0,0,0,0,0,0,.4-.7.8-1.3,1.2-2,3.3-6,5.6-13.2,5.3-21.2,0,0,0,0,0,0,.2-1.2.3-2,.3-2.2.8,9-1.6,17-5.3,23.5h0Z"/>
      </g>
      <path class="cls-1" d="M32.8,23h8v8.3h-8.1v-8.3h0Z"/>
      <path class="cls-1" d="M40.9,33.9h-8.1v8.3h8.1v-8.3Z"/>
      <path class="cls-1" d="M43.5,23h8.6v8.3h-8.6v-8.3Z"/>
      <path class="cls-1" d="M52.1,33.9h-8.6v8.3h8.6v-8.3Z"/>
      <g class="cls-7">
        <path class="cls-4" d="M40.4,83.8c-.8,1.7-2.7,2.6-4.5,2.3-23.5-4-27.3-32.9-27.7-36.7.3,1,10.6,30.6,32.2,34.4h0Z"/>
      </g>
      <g class="cls-7">
        <path class="cls-4" d="M43.7,83.8c.8,1.7,2.7,2.6,4.5,2.3,23.5-4,27.3-32.9,27.7-36.7-.3,1-10.6,30.6-32.2,34.4h0Z"/>
      </g>
      <g class="cls-7">
        <path class="cls-2" d="M42,60.5v8.7c-2.4-3.7-5.9-6.8-8.9-9.5-.6-.5-1.1-1-1.7-1.5-2.6-2.4-5.8-5.4-8.6-8.5-.9-1-1.6-2-2.3-3.1l4-4.2c.6,1.3,1.4,2.5,2.4,3.7,2.5,2.8,5.6,5.7,8.1,8h.1c.5.6,1.1,1.1,1.6,1.6h0c1.6,1.5,3.4,3.1,5.1,4.9Z"/>
      </g>
      <g class="cls-7">
        <path class="cls-3" d="M59.7,14.4l-2.2,5.5-15.5-12.8h0s0-7.1,0-7.1l17.7,14.4Z"/>
      </g>
      <g class="cls-6">
        <path class="cls-3" d="M42,0L5.2,29.9h.6L42,.5l36.2,29.4h.6L42,0ZM60.7,25.6v.5h4.3l-.6-.5h-3.8ZM48.8,54.1c-.5.5-1.1,1-1.6,1.5-1.6,1.5-3.4,3.1-5.1,4.9-1.7-1.8-3.5-3.5-5.1-4.9h0s0,0,0,0c-.6-.5-1.1-1-1.6-1.5h-.1c-2.5-2.4-5.6-5.3-8.1-8.1-1-1.1-1.8-2.3-2.4-3.6-.8-1.8-1.3-3.9-1.3-5.9v.5c0,2.1.4,4.1,1.3,5.9.6,1.3,1.4,2.5,2.4,3.6,2.5,2.8,5.6,5.7,8.1,8h.1c.5.6,1.1,1.1,1.6,1.6h0c1.6,1.5,3.4,3.1,5.1,4.9,1.8-1.8,3.5-3.5,5.1-4.9.6-.5,1.1-1,1.6-1.5,2.5-2.3,5.6-5.2,8.2-8.1,2.4-2.6,3.7-6,3.7-9.6v-.5c0,3.5-1.3,6.9-3.7,9.6-2.6,2.9-5.7,5.8-8.2,8.1ZM23.3,26.1h-3.8l-.6.5h4.3v-.5h0Z"/>
      </g>
    </g>
  </g>
</svg>