<?xml version="1.0" encoding="UTF-8"?>
<svg xmlns="http://www.w3.org/2000/svg" version="1.1" viewBox="0 0 91 120">
  <defs>
    <style>
      .cls-1 {
        fill: #181818;
      }

      .cls-1, .cls-2, .cls-3, .cls-4, .cls-5, .cls-6, .cls-7, .cls-8 {
        stroke-width: 0px;
      }

      .cls-2, .cls-9 {
        isolation: isolate;
      }

      .cls-2, .cls-10 {
        opacity: .5;
      }

      .cls-2, .cls-5 {
        fill: #231f20;
      }

      .cls-3 {
        fill: #52c459;
      }

      .cls-3, .cls-8 {
        fill-rule: evenodd;
      }

      .cls-4 {
        fill: #ffdd02;
      }

      .cls-11 {
        opacity: .4;
      }

      .cls-11, .cls-12 {
        mix-blend-mode: screen;
      }

      .cls-10, .cls-13 {
        mix-blend-mode: multiply;
      }

      .cls-6 {
        fill: #fff;
      }

      .cls-7, .cls-8 {
        fill: #d8292d;
      }
    </style>
  </defs>
  <g class="cls-9">
    <g id="Layer_1" data-name="Layer 1">
      <path class="cls-1" d="M4.1,102.7h5.4v-2.4H3.4c-1.2,0-2,.3-2.6.8-.5.5-.8,1.4-.8,2.6v5.3c0,1.1.3,1.9.8,2.4.5.5,1.3.8,2.4.8h4c.7,0,1.5,0,2.2-.2v-2.2h-2.1c-.3,0-.6.1-.9.1h-2.5c-.3,0-.5,0-.6-.2-.2-.2-.2-.4-.2-.6v-5.4c0-.7.3-1,1-1h0Z"/>
      <path class="cls-1" d="M21.7,100.9c-.5-.5-1.4-.8-2.6-.8h-4.2c-1.2,0-2,.3-2.6.8-.5.5-.8,1.4-.8,2.6v5.4c0,1.2.3,2,.8,2.6.5.5,1.4.8,2.6.8h4.2c1.2,0,2-.3,2.6-.8.5-.5.8-1.4.8-2.6v-5.4c0-1.2-.3-2-.8-2.6ZM19.4,108.9c0,.7-.3,1-1,1h-2.9c-.7,0-1-.3-1-1v-5.4c0-.7.3-1,1-1h2.9c.7,0,1,.3,1,1v5.4Z"/>
      <path class="cls-1" d="M35.1,100.3l-3.4,6.2-3.4-6.2h-3.2v11.8h3v-6.6l2.4,4.2h2.4l2.4-4.2v6.6h3v-11.8h-3.2Z"/>
      <path class="cls-1" d="M51,101.1c-.5-.5-1.4-.8-2.6-.8h-7.1v11.8h3v-3.4h4.1c1.2,0,2-.3,2.6-.8.5-.5.8-1.4.8-2.6v-1.7c0-1.2-.3-2-.8-2.6ZM48.8,105.4c0,.7-.3,1-1,1h-3.4v-3.7h3.4c.7,0,1,.3,1,1v1.7Z"/>
      <path class="cls-1" d="M60,100.3h-3.4l-4.5,11.8h3.3s2.9-8.3,2.9-8.3l2.7,7.9.2.4h3.3l-4.5-11.8h0Z"/>
      <path class="cls-1" d="M73.6,100.3v7.1l-4.1-7.1h-3.2v11.8h3v-7.1l4.1,7.1h3.2v-11.8h-3Z"/>
      <path class="cls-1" d="M87.1,100.3l-2.8,5.7-2.8-5.7h-3.2l4.5,8.7v3.1h3v-3.1l4.5-8.7h-3.2,0Z"/>
      <path class="cls-1" d="M14.8,119.9v-3.6h1.7c.8,0,1.2.5,1.2,1.2s-.4,1.2-1.2,1.2h-.9v1.3h-.8ZM17,117.5c0-.3-.2-.5-.5-.5h-.8v1h.8c.3,0,.5-.2.5-.5Z"/>
      <path class="cls-1" d="M19,118.5v-2.2h.8v2.2c0,.5.3.9.9.9s.9-.3.9-.9v-2.2h.8v2.2c0,.9-.5,1.5-1.6,1.5s-1.6-.6-1.6-1.5Z"/>
      <path class="cls-1" d="M24.6,119.9v-3h-1.1v-.7h2.9v.7h-1.1v3h-.8Z"/>
      <path class="cls-1" d="M30.8,119.9v-3h-1.1v-.7h2.9v.7h-1.1v3h-.8Z"/>
      <path class="cls-1" d="M36,119.9l-.2-.6h-1.6l-.2.6h-.9l1.4-3.6h1l1.4,3.6h-.9ZM35,117.1l-.6,1.6h1.1l-.6-1.6h0Z"/>
      <path class="cls-1" d="M37.7,118.1c0-1.2.9-1.9,1.9-1.9s1.2.4,1.5.8l-.6.3c-.2-.3-.5-.5-.9-.5-.7,0-1.1.5-1.1,1.2s.5,1.2,1.1,1.2.6-.1.8-.3v-.4h-1v-.7h1.7v1.4c-.4.4-.9.7-1.5.7-1.1,0-1.9-.7-1.9-1.9h0Z"/>
      <path class="cls-1" d="M42.5,119.9v-3.6h.8v3h1.5v.7h-2.3Z"/>
      <path class="cls-1" d="M46.1,119.9v-3.6h.8v3.6h-.8Z"/>
      <path class="cls-1" d="M50.9,119.9l-1.7-2.4v2.4h-.8v-3.6h.8l1.7,2.3v-2.3h.8v3.6h-.7Z"/>
      <path class="cls-1" d="M53.1,119.9v-3.6h2.6v.7h-1.8v.8h1.8v.7h-1.8v.8h1.8v.7h-2.6Z"/>
      <path class="cls-1" d="M61.8,119.9v-1.5h-1.7v1.5h-.8v-3.6h.8v1.4h1.7v-1.4h.8v3.6h-.8Z"/>
      <path class="cls-1" d="M64,119.9v-3.6h2.6v.7h-1.8v.8h1.8v.7h-1.8v.8h1.8v.7h-2.6Z"/>
      <path class="cls-1" d="M70,119.9l-.7-1.3h-.6v1.3h-.8v-3.6h1.7c.8,0,1.2.5,1.2,1.2s-.4,1-.8,1.1l.8,1.4h-.9ZM70.1,117.5c0-.3-.2-.5-.5-.5h-.8v1h.8c.3,0,.5-.2.5-.5Z"/>
      <path class="cls-1" d="M72.3,119.9v-3.6h2.6v.7h-1.8v.8h1.8v.7h-1.8v.8h1.8v.7h-2.6Z"/>
      <path class="cls-3" d="M87.3,28.7h-.2c-2.9,1.3-5.7,2.6-8.2,4.1-5.1-13.6-18.2-23.4-33.6-23.4s-28.2,9.5-33.4,22.8c-2.7-1.4-5.5-2.7-8.5-3.8h0C9.9,11.7,26.2,0,45.2,0s35.5,11.9,42.1,28.7Z"/>
      <path class="cls-8" d="M87.3,28.7h-.2c-2.9,1.3-5.7,2.6-8.2,4.1-5.1-13.6-18.2-23.4-33.6-23.4s-28.2,9.5-33.4,22.8c-2.7-1.4-5.5-2.7-8.5-3.8h0C9.9,11.7,26.2,0,45.2,0s35.5,11.9,42.1,28.7Z"/>
      <g class="cls-12">
        <path class="cls-7" d="M45.2,0C27.6,0,12.4,10,4.9,24.7c-.6,1.2-1.2,2.4-1.7,3.6h0c.2.1.5.2.7.3l.8-1.7c.3-.6.6-1.3.9-1.9C13.2,10.2,28.3.8,45.2.8s33.5,10.4,40.6,26.6l.8,1.6c.2,0,.3-.1.5-.2h.2C80.7,11.9,64.3,0,45.2,0Z"/>
      </g>
      <g class="cls-11">
        <path class="cls-8" d="M79,26.3h-.2c-.9.4-1.7.8-2.6,1.2-6.2-10.8-17.8-18.1-31.1-18.1s-24.7,7.1-30.9,17.8c-.9-.4-1.8-.8-2.7-1.1h0C16.8,12.6,29.9,3.2,45.1,3.2s28.6,9.6,33.9,23.1Z"/>
      </g>
      <path class="cls-1" d="M43.9,42.7v6.5h-6.3v-6.5h6.3Z"/>
      <path class="cls-1" d="M52.6,42.7v6.5h-6.7v-6.5h6.7Z"/>
      <path class="cls-1" d="M43.9,51.3h-6.3v6.5h6.3v-6.5Z"/>
      <path class="cls-1" d="M52.6,51.3h-6.7v6.5h6.7v-6.5Z"/>
      <path class="cls-5" d="M67.9,40.3c-.1.1-.3.2-.4.3-1.9,1.7-3.7,3.5-5.4,5.4-.2.2-.3.3-.5.5l-16-18.4-15.7,18.4c-1.8-2.1-3.7-4.1-5.8-5.9-.2-.1-.3-.3-.5-.4,0,0,0,0,0,0,6.4-8.3,12.8-15.7,19.3-23.6l.2-.3c.9-1.2,1.9-2.3,2.8-3.5,4.8,6.4,9.6,12.2,14.5,18.2h0c2.2,2.8,4.4,5.5,6.6,8.4h0c.2.4.5.7.7,1Z"/>
      <g class="cls-13">
        <path class="cls-4" d="M85.2,62.8h0s0,0,0,0h0Z"/>
      </g>
      <path class="cls-2" d="M67.9,40.3s0,0,0,0c-.1.1-.3.2-.4.3l-21.7-25.4-21.7,25.4c-.2-.1-.3-.3-.5-.4l22.3-27.4h0l22,27.5Z"/>
      <path class="cls-6" d="M37.5,57.7c0,0,0,.1,0,.2h0v-.2Z"/>
      <path class="cls-6" d="M85.2,62.8h0s0,0,0,0h0Z"/>
      <path class="cls-8" d="M42.7,90.3c-6.7-.4-13-2.2-18.6-5.1C9.8,77.6,0,62.5,0,45.2s.7-9,2-13.2c20.2,7.6,33.3,22.4,38.6,44.9-16.6-4.9-29.5-26.6-30.1-27.6h0c5.9,29.6,32.3,41,32.3,41Z"/>
      <g class="cls-12">
        <path class="cls-8" d="M42.7,90.3c-6.7-.4-13-2.2-18.6-5.1C9.8,77.6,0,62.5,0,45.2s.7-9,2-13.2c20.2,7.6,33.3,22.4,38.6,44.9-15.3-4.5-27.5-23.4-29.8-27.1,0,0,0-.2,0-.3h0c.6,1,13.2,22.1,29.3,26.9-5.1-21.9-17.8-36.2-37.5-43.6-1.2,4.1-1.9,8.4-1.9,12.8,0,16.9,9.5,31.5,23.4,38.8,5.1,2.7,10.8,4.4,16.8,4.9,1.2.6,1.8.9,1.8.9Z"/>
      </g>
      <g class="cls-10">
        <path class="cls-8" d="M42.7,90.3c-6.7-.4-13-2.2-18.6-5.1-15.9-17.3-13.7-35.9-13.7-35.9,5.9,29.6,32.3,41.1,32.3,41.1Z"/>
      </g>
      <path class="cls-8" d="M47.7,90.3c6.7-.4,13-2.2,18.6-5.1,14.3-7.6,24.1-22.6,24.1-40s-.7-9-2-13.2c-20.2,7.6-33.3,22.4-38.6,44.9,16.6-4.9,29.5-26.6,30.1-27.6h0c-5.9,29.6-32.3,41-32.3,41Z"/>
      <g class="cls-12">
        <path class="cls-8" d="M47.7,90.3c6.7-.4,13-2.2,18.6-5.1,14.3-7.6,24.1-22.6,24.1-40s-.7-9-2-13.2c-20.2,7.6-33.3,22.4-38.6,44.9,15.3-4.5,27.5-23.4,29.8-27.1,0,0,0-.2,0-.3h0c-.6,1-13.2,22.1-29.3,26.9,5.1-21.9,17.8-36.2,37.5-43.6,1.2,4.1,1.9,8.4,1.9,12.8,0,16.9-9.5,31.5-23.4,38.8-5.1,2.7-10.8,4.4-16.8,4.9-1.2.6-1.8.9-1.8.9Z"/>
      </g>
      <g class="cls-10">
        <path class="cls-8" d="M47.7,90.3c6.7-.4,13-2.2,18.6-5.1,15.9-17.3,13.7-35.9,13.7-35.9-5.9,29.6-32.3,41.1-32.3,41.1Z"/>
      </g>
    </g>
  </g>
</svg>