<?xml version="1.0" encoding="UTF-8"?>
<!DOCTYPE svg PUBLIC "-//W3C//DTD SVG 1.1//EN" "http://www.w3.org/Graphics/SVG/1.1/DTD/svg11.dtd">
<!-- Creator: CorelDRAW X7 -->
<svg xmlns="http://www.w3.org/2000/svg" xml:space="preserve" width="380px" height="500px" version="1.1" shape-rendering="geometricPrecision" text-rendering="geometricPrecision" image-rendering="optimizeQuality" fill-rule="evenodd" clip-rule="evenodd"
viewBox="0 0 54 71"
 xmlns:xlink="http://www.w3.org/1999/xlink">
 <g id="Layer_x0020_1">
  <metadata id="CorelCorpID_0Corel-Layer"/>
  <g id="_2011492054864">
   <path fill="#181818" d="M5 62l3 0 0 -2 -4 0c0,0 -1,0 -1,1 -1,0 -1,0 -1,1l0 3c0,1 0,1 1,2 0,0 0,0 1,0l2 0c1,0 1,0 2,0l0 -1 -2 0c0,0 0,0 0,0l-2 0c0,0 0,0 0,0 0,-1 0,-1 0,-1l0 -3c0,0 0,0 1,0l0 0z"/>
   <path fill="#181818" d="M15 61c-1,-1 -1,-1 -2,-1l-2 0c-1,0 -1,0 -2,1 0,0 0,0 0,1l0 3c0,1 0,1 0,2 1,0 1,0 2,0l2 0c1,0 1,0 2,0 0,-1 0,-1 0,-2l0 -3c0,-1 0,-1 0,-1zm-2 4c0,0 0,1 0,1l-2 0c0,0 0,-1 0,-1l0 -3c0,0 0,-1 0,-1l2 0c0,0 0,1 0,1l0 3z"/>
   <polygon fill="#181818" points="22,60 21,64 19,60 17,60 17,67 18,67 18,63 20,66 21,66 23,63 23,67 24,67 24,60 "/>
   <path fill="#181818" d="M32 61c-1,-1 -1,-1 -2,-1l-4 0 0 7 2 0 0 -2 2 0c1,0 1,0 2,0 0,-1 0,-1 0,-2l0 -1c0,-1 0,-1 0,-1zm-2 2c0,0 0,1 0,1l-2 0 0 -2 2 0c0,0 0,0 0,0l0 1z"/>
   <polygon fill="#181818" points="37,60 35,60 32,67 34,67 34,67 36,62 37,67 37,67 39,67 37,60 "/>
   <polygon fill="#181818" points="45,60 45,64 42,60 40,60 40,67 42,67 42,63 45,67 46,67 46,60 "/>
   <polygon fill="#181818" points="52,60 51,63 49,60 47,60 50,65 50,67 52,67 52,65 54,60 52,60 "/>
   <path fill="#181818" d="M11 71l0 -2 1 0c0,0 0,1 0,1 0,0 0,1 0,1l-1 0 0 0 0 0zm1 -1c0,0 0,0 0,0l-1 0 0 0 1 0c0,0 0,0 0,0z"/>
   <path fill="#181818" d="M13 71l0 -2 1 0 0 2c0,0 0,0 0,0 0,0 1,0 1,0l0 -2 0 0 0 2c0,0 0,0 -1,0 -1,0 -1,0 -1,0z"/>
   <polygon fill="#181818" points="16,71 16,70 16,70 16,69 17,69 17,70 17,70 17,71 "/>
   <polygon fill="#181818" points="20,71 20,70 19,70 19,69 21,69 21,70 20,70 20,71 "/>
   <path fill="#181818" d="M23 71l0 0 -1 0 0 0 -1 0 1 -2 1 0 0 2 0 0 0 0zm-1 -1l0 1 1 0 -1 -1 0 0z"/>
   <path fill="#181818" d="M24 70c0,0 0,-1 1,-1 0,0 1,1 1,1l0 0c-1,0 -1,0 -1,0 0,0 -1,0 -1,0 0,1 1,1 1,1 0,0 0,0 0,0l0 0 0 0 0 -1 1 0 0 1c0,0 -1,0 -1,0 -1,0 -1,0 -1,-1l0 0z"/>
   <polygon fill="#181818" points="27,71 27,69 27,69 27,71 28,71 28,71 "/>
   <polygon fill="#181818" points="29,71 29,69 29,69 29,71 "/>
   <polygon fill="#181818" points="32,71 31,70 31,71 30,71 30,69 31,69 32,71 32,69 32,69 32,71 "/>
   <polygon fill="#181818" points="33,71 33,69 34,69 34,70 33,70 33,70 34,70 34,71 33,71 33,71 34,71 34,71 33,71 "/>
   <polygon fill="#181818" points="38,71 38,71 37,71 37,71 36,71 36,69 37,69 37,70 38,70 38,69 38,69 38,71 "/>
   <polygon fill="#181818" points="39,71 39,69 41,69 41,70 40,70 40,70 41,70 41,71 40,71 40,71 41,71 41,71 39,71 "/>
   <path fill="#181818" d="M43 71l-1 0 0 0 0 0 -1 0 0 -2 1 0c1,0 1,1 1,1 0,0 0,1 0,1l0 0 0 0 0 0zm0 -1c0,0 -1,0 -1,0l0 0 0 0 0 0c0,0 1,0 1,0z"/>
   <polygon fill="#181818" points="44,71 44,69 45,69 45,70 44,70 44,70 45,70 45,71 44,71 44,71 45,71 45,71 44,71 "/>
   <path fill="#D8292D" d="M37 9l-11 -9 -23 18 8 0 0 4c0,3 0,5 1,7 1,0 1,1 2,2 2,2 4,3 5,5 1,0 1,0 1,1 2,1 4,3 6,6 1,-3 3,-5 5,-6 0,-1 1,-1 1,-1 2,-2 4,-3 5,-5 2,-3 4,-6 4,-9l0 -4 7 0 -11 -9zm0 7l0 6c0,3 -1,5 -2,6 -2,2 -4,4 -5,5 0,1 -1,1 -1,1 -1,1 -2,2 -3,3 -1,-1 -3,-2 -4,-3l0 0 0 0c0,0 0,0 -1,-1l0 0c-1,-1 -3,-3 -5,-5 0,0 -1,-1 -1,-2 -1,-1 -1,-2 -1,-4l0 -6 -2 0 14 -12 0 0 9 8 5 4 -3 0 0 0z"/>
   <path fill="#D8292D" d="M30 33c0,1 -1,1 -1,1 -1,1 -2,2 -3,3 -1,-1 -3,-2 -4,-3l0 0 0 0c0,0 0,0 -1,-1l0 0c-1,-1 -3,-3 -5,-5 0,0 -1,-1 -1,-2 -1,-1 -1,-2 -1,-4l0 1c0,1 0,2 1,4 0,0 1,1 1,2 2,2 4,3 5,5l0 0c1,0 1,0 1,1l0 0 0 0c1,1 3,2 4,3 1,-1 2,-2 3,-3 0,-1 1,-1 1,-1 1,-2 3,-3 5,-5 1,-2 2,-4 2,-6l0 -1c0,3 -1,5 -2,6 -2,2 -4,4 -5,5z"/>
   <path fill="#181818" d="M48 48c0,0 -1,1 -1,2 0,0 0,0 0,0 -1,0 -2,1 -2,2 0,0 0,0 0,0 -2,1 -4,2 -5,3 -1,0 -1,1 -2,1 0,0 0,0 0,0 -4,2 -8,3 -12,3 -5,0 -9,-1 -13,-3 0,0 -1,-1 -1,-1 -2,-1 -4,-2 -5,-3 0,0 0,0 0,0 -1,-1 -2,-2 -2,-2 0,0 0,0 0,0 -1,-1 -1,-2 -2,-2 -2,-4 -3,-9 -3,-14 0,-2 1,-4 2,-5 1,-4 4,-8 8,-10 -6,6 1,13 8,18 4,4 9,8 7,15l0 0c0,0 0,0 0,0 -1,1 -2,1 -3,1 -15,-2 -17,-20 -17,-23 0,0 0,0 0,0 0,0 0,0 0,0 -1,6 1,11 3,15 0,0 1,0 1,1 0,0 0,0 0,0 0,1 1,2 2,3 0,1 1,1 2,2 3,2 7,4 11,5 1,0 2,0 2,0 1,0 2,0 2,-1 5,0 9,-2 12,-6 1,-1 2,-2 3,-3 0,0 0,0 0,0 0,-1 0,-1 0,-1 3,-4 4,-9 4,-15 -1,1 -2,20 -18,23 -1,0 -2,0 -2,-1l0 0c-3,-7 2,-11 7,-15 6,-5 13,-12 7,-18 4,2 7,6 9,10 0,1 1,3 1,5 1,5 0,10 -3,14l0 0z"/>
   <path fill="#181818" d="M48 48c0,0 -1,1 -1,2 0,0 0,0 0,0 -1,0 -2,1 -2,2 0,0 0,0 0,0 -2,1 -4,2 -5,3 -1,0 -1,1 -2,1 0,0 0,0 0,0 -4,2 -8,3 -12,3 -5,0 -9,-1 -13,-3 0,0 -1,-1 -1,-1 -2,-1 -4,-2 -5,-3 0,0 0,0 0,0 -1,-1 -2,-2 -2,-2 0,0 0,0 0,0 -1,-1 -1,-2 -2,-2 -2,-4 -3,-9 -3,-14 0,-2 1,-4 2,-5 1,-4 4,-8 8,-10 0,1 0,1 -1,1 -3,2 -5,5 -7,9 -1,2 -1,3 -1,5 -1,5 0,9 2,13 1,1 1,2 2,3 0,0 0,0 0,0 0,0 1,1 2,2 0,0 0,0 0,0 1,1 3,2 5,3 0,0 1,0 1,1 4,1 8,3 13,3 4,0 8,-2 12,-3 0,0 0,0 0,0 1,-1 1,-1 1,-1 2,-1 4,-2 5,-3 0,0 0,0 0,0 1,-1 2,-2 2,-2 0,0 0,0 0,0 1,-1 2,-2 2,-3 2,-4 4,-8 3,-13 0,-2 -1,-3 -2,-5 -1,-4 -4,-7 -7,-9 0,0 0,0 -1,-1 4,2 7,6 9,10 0,1 1,3 1,5 1,5 0,10 -3,14l0 0z"/>
   <path fill="#181818" d="M43 45c0,0 0,0 0,1 0,0 0,0 0,0 -1,1 -2,2 -3,3 -3,4 -7,6 -12,6 0,1 -1,1 -2,1 0,0 -1,0 -2,0 -4,-1 -8,-3 -11,-5 -1,-1 -2,-1 -2,-2 -1,-1 -2,-2 -2,-3 0,0 0,0 0,0 0,-1 -1,-1 -1,-1 -2,-4 -4,-9 -3,-15 0,0 0,0 0,0 0,0 0,0 0,0 0,1 0,1 0,2 0,4 1,9 3,13 0,0 1,0 1,1 0,0 0,0 0,0 1,1 1,2 2,3 1,0 1,1 2,2 3,2 7,4 11,4 1,1 2,1 2,0 1,0 2,0 2,0 4,0 9,-3 12,-6 1,-1 2,-2 2,-3 0,0 0,0 0,0 1,-1 1,-1 1,-1 2,-4 4,-8 3,-13 0,0 0,0 0,0 0,-1 1,-2 1,-2 0,6 -1,11 -4,15l0 0z"/>
   <polygon fill="#181818" points="20,14 25,14 25,19 20,19 20,14 "/>
   <polygon fill="#181818" points="25,21 20,21 20,26 25,26 "/>
   <polygon fill="#181818" points="27,14 32,14 32,19 27,19 "/>
   <polygon fill="#181818" points="32,21 27,21 27,26 32,26 "/>
   <path fill="#181818" d="M25 52c-1,1 -2,1 -3,1 -15,-2 -17,-20 -17,-23 0,1 6,19 20,22l0 0z"/>
   <path fill="#181818" d="M27 52c0,1 1,1 2,1 15,-2 17,-20 18,-23 -1,1 -7,19 -20,22l0 0z"/>
   <path fill="#D8292D" d="M26 37l0 6c-2,-3 -4,-5 -6,-6 0,-1 0,-1 -1,-1 -1,-2 -3,-3 -5,-5 -1,-1 -1,-2 -2,-2l3 -3c0,1 1,2 1,2 2,2 4,4 5,5l0 0c1,1 1,1 1,1l0 0 0 0c1,1 3,2 4,3z"/>
   <polygon fill="#D8292D" points="37,9 35,12 26,4 26,4 26,0 "/>
   <path fill="#D8292D" d="M26 0l-23 18 0 0 23 -18 22 18 0 0 -22 -18zm11 16l0 0 3 0 0 0 -3 0zm-7 17c0,1 -1,1 -1,1 -1,1 -2,2 -3,3 -1,-1 -3,-2 -4,-3l0 0 0 0c0,0 0,0 -1,-1l0 0c-1,-1 -3,-3 -5,-5 0,0 -1,-1 -1,-2 -1,-1 -1,-2 -1,-4l0 1c0,1 0,2 1,3 0,1 1,2 1,3 2,1 4,3 5,5l0 0c1,0 1,0 1,1l0 0 0 0c1,0 3,1 4,3 1,-2 2,-3 3,-3 0,-1 1,-1 1,-1 1,-2 3,-4 5,-5 1,-2 2,-4 2,-6l0 -1c0,3 -1,5 -2,6 -2,2 -4,4 -5,5zm-16 -17l-2 0 -1 0 3 0 0 0 0 0z"/>
  </g>
 </g>
</svg>
