<?xml version="1.0" encoding="UTF-8"?>
<!DOCTYPE svg PUBLIC "-//W3C//DTD SVG 1.1//EN" "http://www.w3.org/Graphics/SVG/1.1/DTD/svg11.dtd">
<!-- Creator: CorelDRAW 2021 (64-Bit) -->
<svg xmlns="http://www.w3.org/2000/svg" xml:space="preserve" width="500px" height="500px" version="1.1" style="shape-rendering:geometricPrecision; text-rendering:geometricPrecision; image-rendering:optimizeQuality; fill-rule:evenodd; clip-rule:evenodd"
viewBox="0 0 500 500"
 xmlns:xlink="http://www.w3.org/1999/xlink"
 xmlns:xodm="http://www.corel.com/coreldraw/odm/2003">
 <defs>
  <style type="text/css">
   <![CDATA[
    .fil0 {fill:white;fill-rule:nonzero}
   ]]>
  </style>
   <clipPath id="id0">
    <rect x="815" y="88" width="407" height="257"/>
   </clipPath>
 </defs>
 <g id="Layer_x0020_1">
  <metadata id="CorelCorpID_0Corel-Layer"/>
  <g style="clip-path:url(#id0)">
   <image id="light-red-color_color.png" x="815" y="88" width="407" height="257" xlink:href="ms wht 1_Images\ms wht 1_ImgID1.png"/>
  </g>
  <g id="mission.svg">
   <g id="Icons">
    <g>
     <path class="fil0" d="M316 357l-4 -9c-4,2 -8,3 -12,5l3 10c4,-2 9,-3 13,-5l0 0z"/>
     <path class="fil0" d="M62 275l1 1 9 -5c0,-1 -4,-6 1,-8l22 -13c2,-1 3,-4 2,-6 -8,-29 -8,-57 0,-85 1,-2 0,-5 -2,-6l-22 -13c-2,-1 -3,-4 -2,-7l31 -54c1,-2 4,-3 7,-2l22 13c2,1 5,1 6,-1 20,-21 45,-35 73,-43 2,-1 4,-3 4,-5l0 -26c0,-3 2,-5 5,-5l61 0c3,0 5,2 5,5l0 26c0,2 2,4 4,5 28,7 53,22 73,43 2,2 4,2 6,1l22 -13c2,-1 5,-1 7,2l31 54c1,2 1,6 -2,7l-22 13c-2,1 -3,4 -2,6 8,29 8,57 0,85 -1,2 0,5 2,6l22 13c2,1 3,4 2,7l-1 1 9 5 1 -1c4,-8 2,-17 -6,-21l-19 -11c7,-28 7,-55 0,-83l19 -11c7,-4 10,-14 6,-21l-31 -54c-4,-7 -14,-10 -21,-6l-19 11c-20,-20 -44,-34 -71,-42l0 -22c0,-9 -7,-15 -15,-15l-61 0c-8,0 -15,7 -15,15l0 22c-27,8 -51,22 -71,42l-19 -11c-7,-4 -17,-2 -21,6l-31 54c-4,8 -2,17 6,21l19 11c-7,28 -7,55 0,83l-19 11c-8,4 -10,14 -6,21l0 0z"/>
     <path class="fil0" d="M201 353c-4,-2 -8,-3 -12,-5l-4 10c4,2 9,3 13,5l3 -10z"/>
     <path class="fil0" d="M143 201c0,-32 14,-62 37,-82l-7 -8c-26,22 -41,55 -41,90 0,45 25,85 64,106l5 -9c-36,-19 -58,-55 -58,-96l0 0z"/>
     <path class="fil0" d="M367 201c0,-35 -15,-67 -41,-90l-7 8c24,20 37,50 37,82 0,41 -22,78 -58,96l5 9c39,-20 64,-61 64,-106l0 0z"/>
     <path class="fil0" d="M235 73l0 21c0,9 7,15 15,15 8,0 15,-7 15,-15l0 -21c0,-9 -7,-15 -15,-15 -8,0 -15,7 -15,15zm20 0l0 21c0,3 -2,5 -5,5 -3,0 -5,-2 -5,-5l0 -21c0,-3 2,-5 5,-5 3,0 5,2 5,5z"/>
     <path class="fil0" d="M290 83l-14 15c-6,6 -6,16 0,22 6,6 16,6 22,0l14 -15c6,-6 6,-16 0,-22 -6,-6 -16,-6 -22,0zm14 15l-14 15c-2,2 -5,2 -7,0 -2,-2 -2,-5 0,-7l14 -15c2,-2 5,-2 7,0 2,2 2,5 0,7z"/>
     <path class="fil0" d="M188 83c-6,6 -6,16 0,22l14 15c6,6 16,6 22,0 6,-6 6,-16 0,-22l-14 -15c-6,-6 -16,-6 -22,0zm29 29c-2,2 -5,2 -7,0l-14 -15c-2,-2 -2,-5 0,-7 2,-2 5,-2 7,0l14 15c2,2 2,5 0,7z"/>
     <polygon class="fil0" points="173,479 184,479 184,500 173,500 "/>
     <polygon class="fil0" points="71,479 82,479 82,500 71,500 "/>
     <path class="fil0" d="M0 232l0 77c0,7 3,13 7,18 54,55 70,70 71,73l8 -6c-3,-4 1,1 -73,-74 -3,-3 -5,-7 -4,-11l0 -77c0,-8 5,-15 15,-15 7,-1 15,6 15,15l0 52 10 0 0 -52c0,-14 -11,-26 -25,-26 -15,0 -26,12 -25,26l0 0z"/>
     <path class="fil0" d="M55 333l48 47 7 -7 -48 -47c-6,-7 -6,-18 2,-24 6,-4 15,-3 20,2l24 26c4,4 9,5 13,4 10,-2 21,1 29,9l4 4c5,5 9,12 9,19l0 31 10 0c0,-5 0,-32 0,-31l0 0c0,-1 0,-14 -12,-26l-4 -4c-10,-10 -24,-14 -38,-12 -1,0 -3,0 -4,-1l-24 -26c-11,-11 -26,-10 -36,-2 -11,10 -11,27 -1,37l0 0z"/>
     <path class="fil0" d="M194 448l0 -21c0,-9 -7,-15 -15,-15l-102 0c-8,0 -15,7 -15,15l0 21c0,9 7,15 15,15l102 0c8,0 15,-7 15,-15zm-10 0c0,3 -2,5 -5,5l-102 0c-3,0 -5,-2 -5,-5l0 -21c0,-3 2,-5 5,-5l102 0c3,0 5,2 5,5l0 21z"/>
     <path class="fil0" d="M250 474c20,0 36,-16 36,-36l0 -154c0,-2 1,-4 3,-5 30,-15 48,-45 48,-78 0,-25 -11,-49 -29,-66 -16,-15 -42,-2 -42,20l0 46c0,3 -2,5 -5,5l-20 0c-3,0 -5,-2 -5,-5l0 -46c0,-22 -26,-34 -42,-20 -19,17 -29,41 -29,66 0,35 20,64 48,78 2,1 3,3 3,5l0 152c0,20 16,38 36,38zm-77 -273c0,-22 9,-43 26,-58 10,-9 25,-1 25,12l0 46c0,9 7,15 15,15l20 0c8,0 15,-7 15,-15l0 -46c0,-13 15,-21 25,-12 16,15 26,36 26,58 0,29 -16,56 -42,69 -5,3 -9,8 -9,14l0 154c0,14 -11,26 -26,26 -14,0 -26,-13 -26,-28l0 -152c0,-6 -3,-11 -9,-14 -25,-13 -42,-38 -42,-69l0 0z"/>
     <path class="fil0" d="M250 454c8,0 15,-7 15,-15l0 -155c0,-9 -7,-15 -15,-15 -8,0 -15,7 -15,15l0 155c0,9 7,15 15,15zm-5 -170c0,-3 2,-5 5,-5 3,0 5,2 5,5l0 155c0,3 -2,5 -5,5 -3,0 -5,-2 -5,-5l0 -155z"/>
     <polygon class="fil0" points="316,479 327,479 327,500 316,500 "/>
     <polygon class="fil0" points="418,479 429,479 429,500 418,500 "/>
     <path class="fil0" d="M500 309l0 -77c0,-15 -12,-26 -25,-26 -16,0 -26,12 -26,26l0 52 10 0 0 -52c0,-9 8,-16 15,-15 7,-1 15,6 15,15l0 77c0,4 -2,8 -4,11 -73,74 -70,70 -73,74l8 6c2,-2 18,-19 71,-73 5,-5 8,-12 7,-18l0 0z"/>
     <path class="fil0" d="M408 297l-23 26c-1,1 -3,2 -4,1 -14,-3 -28,2 -38,12l-4 4c-7,7 -11,16 -12,26 0,2 0,32 0,31l10 0 0 -31c1,-7 4,-14 9,-19l4 -4c8,-8 18,-11 29,-9 5,1 10,-1 13,-5l23 -26c6,-6 15,-7 20,-3 8,6 8,17 2,24l-48 47 7 7 48 -47c11,-11 10,-29 -3,-39 -10,-7 -24,-7 -35,3l0 0z"/>
     <path class="fil0" d="M439 448l0 -21c0,-9 -7,-15 -15,-15l-102 0c-8,0 -15,7 -15,15l0 21c0,9 7,15 15,15l102 0c8,0 15,-7 15,-15zm-10 0c0,3 -2,5 -5,5l-102 0c-3,0 -5,-2 -5,-5l0 -21c0,-3 2,-5 5,-5l102 0c3,0 5,2 5,5l0 21z"/>
     <circle class="fil0" cx="87" cy="438" r="5"/>
     <circle class="fil0" cx="413" cy="438" r="5"/>
    </g>
   </g>
  </g>
 </g>
</svg>
