<svg width="500" height="500" viewBox="0 0 500 500" fill="none" xmlns="http://www.w3.org/2000/svg">
<g clip-path="url(#clip0_662_2177)">
<path d="M316 357L312 348C308 350 304 351 300 353L303 363C307 361 312 360 316 358V357Z" fill="#D8292D"/>
<path d="M62 275L63 276L72 271C72 270 68 265 73 263L95 250C97 249 98 246 97 244C89 215 89 187 97 159C98 157 97 154 95 153L73 140C71 139 70 136 71 133L102 79C103 77 106 76 109 77L131 90C133 91 136 91 137 89C157 68 182 54 210 46C212 45 214 43 214 41V15C214 12 216 10 219 10H280C283 10 285 12 285 15V41C285 43 287 45 289 46C317 53 342 68 362 89C364 91 366 91 368 90L390 77C392 76 395 76 397 79L428 133C429 135 429 139 426 140L404 153C402 154 401 157 402 159C410 188 410 216 402 244C401 246 402 249 404 250L426 263C428 264 429 267 428 270L427 271L436 276L437 275C441 267 439 258 431 254L412 243C419 215 419 188 412 160L431 149C438 145 441 135 437 128L406 74C402 67 392 64 385 68L366 79C346 59 322 45 295 37V15C295 6 288 0 280 0H219C211 0 204 7 204 15V37C177 45 153 59 133 79L114 68C107 64 97 66 93 74L62 128C58 136 60 145 68 149L87 160C80 188 80 215 87 243L68 254C60 258 58 268 62 275Z" fill="#D8292D"/>
<path d="M201 353C197 351 193 350 189 348L185 358C189 360 194 361 198 363L201 353Z" fill="#D8292D"/>
<path d="M143 201C143 169 157 139 180 119L173 111C147 133 132 166 132 201C132 246 157 286 196 307L201 298C165 279 143 243 143 202V201Z" fill="#D8292D"/>
<path d="M367 201C367 166 352 134 326 111L319 119C343 139 356 169 356 201C356 242 334 279 298 297L303 306C342 286 367 245 367 200V201Z" fill="#D8292D"/>
<path d="M235 73V94C235 103 242 109 250 109C258 109 265 102 265 94V73C265 64 258 58 250 58C242 58 235 65 235 73ZM255 73V94C255 97 253 99 250 99C247 99 245 97 245 94V73C245 70 247 68 250 68C253 68 255 70 255 73Z" fill="#D8292D"/>
<path d="M290 83L276 98C270 104 270 114 276 120C282 126 292 126 298 120L312 105C318 99 318 89 312 83C306 77 296 77 290 83ZM304 98L290 113C288 115 285 115 283 113C281 111 281 108 283 106L297 91C299 89 302 89 304 91C306 93 306 96 304 98Z" fill="#D8292D"/>
<path d="M188 83C182 89 182 99 188 105L202 120C208 126 218 126 224 120C230 114 230 104 224 98L210 83C204 77 194 77 188 83ZM217 112C215 114 212 114 210 112L196 97C194 95 194 92 196 90C198 88 201 88 203 90L217 105C219 107 219 110 217 112Z" fill="#D8292D"/>
<path d="M173 479H184V500H173V479Z" fill="#D8292D"/>
<path d="M71 479H82V500H71V479Z" fill="#D8292D"/>
<path d="M-0.000385404 232V309C-0.000385404 316 2.99961 322 6.99961 327C60.9996 382 76.9996 397 77.9996 400L85.9996 394C82.9996 390 86.9996 395 12.9996 320C9.99961 317 7.99961 313 8.99961 309V232C8.99961 224 13.9996 217 23.9996 217C30.9996 216 38.9996 223 38.9996 232V284H48.9996V232C48.9996 218 37.9996 206 23.9996 206C8.99961 206 -2.00039 218 -1.00039 232H-0.000385404Z" fill="#D8292D"/>
<path d="M54.9996 333L103 380L110 373L61.9996 326C55.9996 319 55.9996 308 63.9996 302C69.9996 298 78.9996 299 83.9996 304L108 330C112 334 117 335 121 334C131 332 142 335 150 343L154 347C159 352 163 359 163 366V397H173C173 392 173 365 173 366C173 365 173 352 161 340L157 336C147 326 133 322 119 324C118 324 116 324 115 323L90.9996 297C79.9996 286 64.9996 287 54.9996 295C43.9996 305 43.9996 322 53.9996 332L54.9996 333Z" fill="#D8292D"/>
<path d="M194 448V427C194 418 187 412 179 412H77C69 412 62 419 62 427V448C62 457 69 463 77 463H179C187 463 194 456 194 448ZM184 448C184 451 182 453 179 453H77C74 453 72 451 72 448V427C72 424 74 422 77 422H179C182 422 184 424 184 427V448Z" fill="#D8292D"/>
<path d="M250 474C270 474 286 458 286 438V284C286 282 287 280 289 279C319 264 337 234 337 201C337 176 326 152 308 135C292 120 266 133 266 155V201C266 204 264 206 261 206H241C238 206 236 204 236 201V155C236 133 210 121 194 135C175 152 165 176 165 201C165 236 185 265 213 279C215 280 216 282 216 284V436C216 456 232 474 252 474H250ZM173 201C173 179 182 158 199 143C209 134 224 142 224 155V201C224 210 231 216 239 216H259C267 216 274 209 274 201V155C274 142 289 134 299 143C315 158 325 179 325 201C325 230 309 257 283 270C278 273 274 278 274 284V438C274 452 263 464 248 464C234 464 222 451 222 436V284C222 278 219 273 213 270C188 257 171 232 171 201H173Z" fill="#D8292D"/>
<path d="M250 454C258 454 265 447 265 439V284C265 275 258 269 250 269C242 269 235 276 235 284V439C235 448 242 454 250 454ZM245 284C245 281 247 279 250 279C253 279 255 281 255 284V439C255 442 253 444 250 444C247 444 245 442 245 439V284Z" fill="#D8292D"/>
<path d="M316 479H327V500H316V479Z" fill="#D8292D"/>
<path d="M418 479H429V500H418V479Z" fill="#D8292D"/>
<path d="M500 309V232C500 217 488 206 475 206C459 206 449 218 449 232V284H459V232C459 223 467 216 474 217C481 216 489 223 489 232V309C489 313 487 317 485 320C412 394 415 390 412 394L420 400C422 398 438 381 491 327C496 322 499 315 498 309H500Z" fill="#D8292D"/>
<path d="M408 297L385 323C384 324 382 325 381 324C367 321 353 326 343 336L339 340C332 347 328 356 327 366C327 368 327 398 327 397H337V366C338 359 341 352 346 347L350 343C358 335 368 332 379 334C384 335 389 333 392 329L415 303C421 297 430 296 435 300C443 306 443 317 437 324L389 371L396 378L444 331C455 320 454 302 441 292C431 285 417 285 406 295L408 297Z" fill="#D8292D"/>
<path d="M439 448V427C439 418 432 412 424 412H322C314 412 307 419 307 427V448C307 457 314 463 322 463H424C432 463 439 456 439 448ZM429 448C429 451 427 453 424 453H322C319 453 317 451 317 448V427C317 424 319 422 322 422H424C427 422 429 424 429 427V448Z" fill="#D8292D"/>
<path d="M87 443C89.7614 443 92 440.761 92 438C92 435.239 89.7614 433 87 433C84.2386 433 82 435.239 82 438C82 440.761 84.2386 443 87 443Z" fill="#D8292D"/>
<path d="M413 443C415.761 443 418 440.761 418 438C418 435.239 415.761 433 413 433C410.239 433 408 435.239 408 438C408 440.761 410.239 443 413 443Z" fill="#D8292D"/>
</g>
<defs>
<clipPath id="clip0_662_2177">
<rect width="500" height="500" fill="white"/>
</clipPath>
</defs>
</svg>
