<?xml version="1.0" encoding="UTF-8"?>
<!DOCTYPE svg PUBLIC "-//W3C//DTD SVG 1.1//EN" "http://www.w3.org/Graphics/SVG/1.1/DTD/svg11.dtd">
<!-- Creator: CorelDRAW 2021 (64-Bit) -->
<svg xmlns="http://www.w3.org/2000/svg" xml:space="preserve" width="500px" height="500px" version="1.1" style="shape-rendering:geometricPrecision; text-rendering:geometricPrecision; image-rendering:optimizeQuality; fill-rule:evenodd; clip-rule:evenodd"
viewBox="0 0 500 500"
 xmlns:xlink="http://www.w3.org/1999/xlink"
 xmlns:xodm="http://www.corel.com/coreldraw/odm/2003">
 <defs>
  <style type="text/css">
   <![CDATA[
    .fil0 {fill:white;fill-rule:nonzero}
   ]]>
  </style>
 </defs>
 <g id="Layer_x0020_1">
  <metadata id="CorelCorpID_0Corel-Layer"/>
  <g id="vision.svg">
   <g>
    <path class="fil0" d="M435 239c-5,-2 -10,-1 -14,1 -5,2 -8,6 -10,11l-13 39 -19 2c4,-7 6,-16 6,-24 0,-17 -10,-30 -25,-34l7 -27c4,-11 -2,-23 -13,-27 -5,-2 -11,-2 -16,1 0,0 -1,0 -1,1 12,-17 19,-38 19,-61 0,-7 -1,-14 -2,-21 -1,-4 -4,-6 -8,-5 -4,1 -6,4 -5,8 1,6 2,12 2,18 0,37 -21,70 -55,85 -3,-7 -9,-13 -15,-17 28,-10 48,-36 48,-67 0,-2 0,-4 0,-6 0,-4 -3,-6 -7,-6 -4,0 -6,3 -6,7 0,2 0,3 0,5 0,32 -26,58 -58,58 -32,0 -58,-26 -58,-58 0,-32 26,-58 58,-58 16,0 30,6 41,17 2,2 4,4 5,6 2,3 6,3 9,1 3,-2 3,-6 1,-9 -2,-3 -4,-5 -7,-8 -13,-14 -31,-21 -50,-21 -39,0 -71,32 -71,71 0,32 21,59 50,68 -7,4 -12,10 -15,17 -34,-14 -57,-48 -57,-85 0,-51 42,-93 93,-93 33,0 62,17 79,45 2,3 6,4 9,2 3,-2 4,-6 2,-9 -19,-32 -53,-51 -91,-51 -58,0 -106,47 -106,106 0,22 7,42 18,60 -5,-2 -10,-2 -15,0 -11,4 -17,16 -13,27l7 27c-16,3 -28,17 -28,35 0,8 2,17 6,24l-19 -2 -13 -40c-2,-5 -5,-9 -10,-11 -4,-2 -10,-2 -14,-1 -5,2 -9,5 -11,9 -2,4 -3,10 -1,14l15 55c3,8 10,14 19,14l19 3 3 116c0,11 9,21 21,21 10,0 18,-7 20,-17 2,10 10,17 20,17 11,0 21,-9 20,-20l3 -116 6 -1 3 130c0,13 11,24 24,24 13,0 24,-11 23,-23l1 -12 1 12c0,13 11,23 23,23 13,0 24,-11 24,-23l3 -129 3 0 3 116c0,11 9,21 21,21 10,0 18,-7 20,-17 2,10 10,17 20,17 11,0 21,-9 21,-20l3 -116 19 -3c9,0 16,-6 19,-14l14 -54c2,-5 1,-10 -1,-14 -2,-4 -6,-8 -11,-9l0 0zm-63 29c0,16 -11,31 -22,31 -6,0 -12,-5 -16,-12 7,-2 13,-8 16,-15l7 -26c9,3 15,11 15,21l0 0zm-79 -44c0,-2 0,-4 0,-6 13,-6 25,-14 35,-24l-16 48 -22 3c3,-7 4,-14 4,-21l0 0zm-41 -29c16,0 28,12 28,29 0,18 -13,39 -28,39 -15,0 -28,-22 -28,-39 0,-17 11,-29 28,-29zm-41 23c0,2 0,3 0,5 0,7 1,14 4,21l-23 -3 -15 -46c10,9 21,17 34,22zm-65 27l7 27c2,7 7,12 13,14 -4,8 -11,13 -17,13 -11,0 -22,-16 -22,-31 0,-12 7,-20 18,-22zm41 76c-3,0 -5,3 -6,6l-4 122c0,4 -3,8 -8,8 -4,0 -8,-3 -8,-8 0,0 0,0 0,-1l-7 -65c0,-3 -3,-6 -7,-6 -3,0 -6,3 -6,6l-5 65c0,0 0,0 0,1 0,4 -3,8 -8,8 -4,0 -8,-3 -8,-8l-4 -122c0,-3 -2,-6 -6,-6l-25 -4c0,0 -1,0 -1,0 -3,0 -6,-2 -7,-5l-15 -55c-1,-1 0,-3 0,-4 1,-1 2,-2 3,-3 1,-1 3,0 4,0 1,1 2,2 3,3l15 43c1,2 3,4 6,4l36 4c0,0 0,0 0,0 5,4 11,6 17,6 6,0 11,-2 17,-6 0,0 0,0 0,0 0,0 0,0 1,0l32 -3 0 17 -13 2zm-9 -29c1,-1 1,-2 2,-3l13 2 -14 1zm118 -12c-3,0 -5,3 -6,6l-4 176c0,6 -5,11 -11,11 -6,0 -11,-5 -11,-11 0,0 0,0 0,-1l-8 -90c0,-3 -3,-6 -6,-6 0,0 0,0 0,0 -3,0 -6,3 -6,6l-7 91c0,6 -5,11 -11,11 -6,0 -11,-5 -11,-11l-4 -176c0,-3 -2,-6 -6,-6l-30 -4c0,0 -1,0 -1,0 -5,0 -9,-3 -10,-7l-18 -66c-1,-2 -1,-4 0,-6 1,-2 3,-4 5,-4 2,-1 4,-1 6,0 2,1 4,3 4,5l18 53c1,2 3,4 5,4l33 4c1,0 1,0 2,0 7,10 18,18 30,18 12,0 22,-7 30,-18 1,0 1,0 2,0l33 -4c2,0 5,-2 5,-4l18 -53c1,-2 2,-4 4,-5 2,-1 4,-1 6,0 4,2 7,6 5,11l-17 65c-1,4 -5,7 -10,7 0,0 -1,0 -1,0l-30 4zm25 12l-12 -1 11 -2c0,1 1,2 1,3zm112 -33l-14 54c-1,3 -4,5 -7,5 0,0 -1,0 -1,0l-25 4c-3,0 -5,3 -6,6l-4 122c0,4 -3,8 -8,8 -4,0 -8,-3 -8,-8 0,0 0,0 0,-1l-5 -65c0,-3 -3,-6 -6,-6 -3,0 -6,2 -7,6l-7 65c0,0 0,0 0,1 0,4 -3,8 -8,8 -4,0 -8,-3 -8,-8l-4 -122c0,-3 -2,-6 -6,-6l-10 -1 0 -17 29 3c0,0 0,0 1,0 0,0 0,0 0,0 5,4 11,6 17,6 6,0 12,-2 17,-6 0,0 0,0 0,0l36 -4c3,0 5,-2 6,-4l15 -43c1,-1 2,-3 3,-3 1,-1 3,-1 4,0 1,1 3,2 3,3 1,1 1,3 0,5l0 0z"/>
    <path class="fil0" d="M252 96c5,0 9,2 13,5 3,2 7,2 9,-1 2,-3 2,-7 -1,-9 -6,-4 -13,-7 -20,-7 -21,-1 -39,14 -40,35 -1,10 3,20 9,27 7,8 16,12 26,13 1,0 2,0 3,0 18,0 33,-13 37,-30 1,-4 -2,-7 -5,-8 -4,-1 -7,2 -8,5 -2,12 -14,21 -26,20 -7,0 -13,-3 -17,-8 -4,-5 -6,-11 -6,-18 1,-14 13,-24 26,-23z"/>
    <path class="fil0" d="M399 62c-1,-3 -5,-5 -8,-4l-142 56c-3,1 -5,5 -4,8 1,3 3,4 6,4 1,0 2,0 2,0l142 -56c3,-1 5,-5 4,-8l0 0z"/>
   </g>
  </g>
 </g>
</svg>
